<svg width="24" height="24" viewBox="0 0 24 24" fill="none" xmlns="http://www.w3.org/2000/svg">
<path d="M12 23.375C18.2822 23.375 23.375 18.2822 23.375 12C23.375 5.71776 18.2822 0.625 12 0.625C5.71776 0.625 0.625 5.71776 0.625 12C0.625 18.2822 5.71776 23.375 12 23.375Z" stroke="white" stroke-width="1.25"/>
<path d="M13.504 8.57297H14.369V7.06697C13.9506 7.02091 13.5299 6.99854 13.109 6.99997C12.8179 6.98347 12.5267 7.03081 12.2559 7.13866C11.985 7.24651 11.741 7.41227 11.541 7.62432C11.3409 7.83638 11.1897 8.08961 11.0978 8.36628C11.0059 8.64295 10.9755 8.93636 11.009 9.22597V10.552H9.63196V12.236H11.008V16.473H12.695V12.236H14.015L14.225 10.552H12.694V9.39297C12.694 8.90597 12.825 8.57297 13.504 8.57297V8.57297Z" fill="white"/>
</svg>
