<svg width="408" height="43" viewBox="0 0 408 43" fill="none" xmlns="http://www.w3.org/2000/svg">
<path d="M142.272 36.5767C150.706 36.5767 157.544 29.8266 157.544 21.5C157.544 13.1734 150.706 6.42328 142.272 6.42328C133.838 6.42328 127 13.1734 127 21.5C127 29.8266 133.838 36.5767 142.272 36.5767Z" fill="#E04510"/>
<path d="M142.272 36.0831C150.43 36.0831 157.044 29.554 157.044 21.5C157.044 13.446 150.43 6.9169 142.272 6.9169C134.114 6.9169 127.5 13.446 127.5 21.5C127.5 29.554 134.114 36.0831 142.272 36.0831Z" stroke="white"/>
<path d="M205.371 35.785C213.308 35.785 219.742 29.4331 219.742 21.5977C219.742 13.7623 213.308 7.41049 205.371 7.41049C197.434 7.41049 191 13.7623 191 21.5977C191 29.4331 197.434 35.785 205.371 35.785Z" fill="white"/>
<path d="M205.371 35.2914C213.032 35.2914 219.242 29.1605 219.242 21.5977C219.242 14.0349 213.032 7.90408 205.371 7.90408C197.71 7.90408 191.5 14.0349 191.5 21.5977C191.5 29.1605 197.71 35.2914 205.371 35.2914Z" stroke="white"/>
<path d="M14.873 36.7761C23.0871 36.7761 29.746 30.2024 29.746 22.0933C29.746 13.9842 23.0871 7.41049 14.873 7.41049C6.65887 7.41049 0 13.9842 0 22.0933C0 30.2024 6.65887 36.7761 14.873 36.7761Z" fill="#39746F"/>
<path d="M14.873 36.2825C22.811 36.2825 29.246 29.9298 29.246 22.0933C29.246 14.2568 22.811 7.90408 14.873 7.90408C6.93501 7.90408 0.5 14.2568 0.5 22.0933C0.5 29.9298 6.93501 36.2825 14.873 36.2825Z" stroke="white"/>
<path d="M330.371 35.785C338.308 35.785 344.742 29.4331 344.742 21.5977C344.742 13.7623 338.308 7.41049 330.371 7.41049C322.434 7.41049 316 13.7623 316 21.5977C316 29.4331 322.434 35.785 330.371 35.785Z" fill="#EA3A51"/>
<path d="M330.371 35.2914C338.032 35.2914 344.242 29.1605 344.242 21.5977C344.242 14.0349 338.032 7.90408 330.371 7.90408C322.71 7.90408 316.5 14.0349 316.5 21.5977C316.5 29.1605 322.71 35.2914 330.371 35.2914Z" stroke="white"/>
<path d="M393.371 35.785C401.308 35.785 407.742 29.4331 407.742 21.5977C407.742 13.7623 401.308 7.41049 393.371 7.41049C385.434 7.41049 379 13.7623 379 21.5977C379 29.4331 385.434 35.785 393.371 35.785Z" fill="#EA3A51"/>
<path d="M393.371 35.2914C401.032 35.2914 407.242 29.1605 407.242 21.5977C407.242 14.0349 401.032 7.90408 393.371 7.90408C385.71 7.90408 379.5 14.0349 379.5 21.5977C379.5 29.1605 385.71 35.2914 393.371 35.2914Z" stroke="white"/>
<path d="M77.873 36.7761C86.0871 36.7761 92.746 30.2024 92.746 22.0933C92.746 13.9842 86.0871 7.41049 77.873 7.41049C69.6589 7.41049 63 13.9842 63 22.0933C63 30.2024 69.6589 36.7761 77.873 36.7761Z" fill="#313131"/>
<path d="M77.873 36.2825C85.811 36.2825 92.246 29.9298 92.246 22.0933C92.246 14.2568 85.811 7.90408 77.873 7.90408C69.935 7.90408 63.5 14.2568 63.5 22.0933C63.5 29.9298 69.935 36.2825 77.873 36.2825Z" stroke="white"/>
<path d="M268.371 35.785C276.308 35.785 282.742 29.4331 282.742 21.5977C282.742 13.7623 276.308 7.41049 268.371 7.41049C260.434 7.41049 254 13.7623 254 21.5977C254 29.4331 260.434 35.785 268.371 35.785Z" fill="#707070"/>
<path d="M268.371 35.2914C276.032 35.2914 282.242 29.1605 282.242 21.5977C282.242 14.0349 276.032 7.90408 268.371 7.90408C260.71 7.90408 254.5 14.0349 254.5 21.5977C254.5 29.1605 260.71 35.2914 268.371 35.2914Z" stroke="white"/>
<path d="M142.001 42.0064C153.473 42.0064 162.773 32.8254 162.773 21.5C162.773 10.1746 153.473 0.993622 142.001 0.993622C130.528 0.993622 121.229 10.1746 121.229 21.5C121.229 32.8254 130.528 42.0064 142.001 42.0064Z" stroke="white"/>
</svg>
