<svg width="36" height="38" viewBox="0 0 36 38" fill="none" xmlns="http://www.w3.org/2000/svg">
<path d="M35.1155 27.9239C34.0731 27.079 32.8625 26.4694 31.5657 26.1364C31.3867 26.0893 31.1965 26.1144 31.0357 26.2064C30.8749 26.2984 30.7562 26.4499 30.7048 26.6288C30.642 26.8026 30.6475 26.9941 30.7202 27.164C30.7928 27.3339 30.9272 27.4696 31.0958 27.5433C31.2752 27.6278 31.4711 27.6807 31.655 27.7487C32.4954 28.0087 33.2848 28.4131 33.9882 28.9441C34.6637 29.5037 34.6712 29.9583 33.9792 30.4831C33.5956 30.7723 33.1822 31.0191 32.7462 31.2194C30.8173 32.0451 28.7821 32.5925 26.701 32.8453C25.5332 33.022 24.3557 33.13 23.1826 33.2734C22.9858 33.2847 22.8014 33.3741 22.6699 33.5221C22.5385 33.67 22.4708 33.8644 22.4816 34.0625C22.4924 34.2607 22.581 34.4464 22.7277 34.5789C22.8745 34.7114 23.0675 34.78 23.2645 34.7694C23.3816 34.7722 23.4988 34.7659 23.6149 34.7505C25.5002 34.4726 27.3929 34.2363 29.2676 33.898C30.8868 33.6303 32.4539 33.1071 33.9109 32.3476C34.3957 32.1373 34.8317 31.8278 35.1913 31.4388C35.5508 31.0498 35.8261 30.5899 35.9996 30.0882V29.3791C35.853 28.8173 35.5456 28.3112 35.1155 27.9239Z" fill="white"/>
<path d="M7.50782 24.836C7.50782 25.6048 7.58287 25.7188 8.27932 25.9884C11.4104 27.2042 14.5399 28.4246 17.6762 29.6268C17.8941 29.7008 18.1304 29.6989 18.3472 29.6215C21.5052 28.4132 24.6566 27.1793 27.8094 25.9544C28.3767 25.7339 28.4931 25.5678 28.4938 24.9546C28.4938 23.0178 28.4938 21.0811 28.4938 19.1443H28.5096C28.5096 17.1371 28.5096 15.1299 28.5096 13.1226C28.5224 12.9496 28.4762 12.7774 28.3787 12.6343C28.2811 12.4913 28.138 12.386 27.973 12.3358C24.8089 11.1109 21.6448 9.88475 18.4808 8.65735C18.3305 8.59437 18.1693 8.56195 18.0064 8.56195C17.8436 8.56195 17.6824 8.59437 17.5321 8.65735C14.3706 9.88827 11.2067 11.1144 8.04067 12.3358C7.87013 12.3859 7.72225 12.4941 7.62242 12.642C7.52258 12.7899 7.47702 12.9681 7.49355 13.1461C7.49355 13.3583 7.50707 13.5705 7.50782 13.7834C7.50782 17.4676 7.50782 21.1521 7.50782 24.8368V24.836ZM27.0003 14.1965V14.5363C27.0003 17.7956 27.0003 21.0549 27.0003 24.3142C27.0003 24.5309 26.9778 24.6669 26.7324 24.7605C24.1522 25.7475 21.5795 26.7519 19.0023 27.7502C18.9386 27.7751 18.8703 27.7887 18.7524 27.8219V27.4919C18.7524 24.2326 18.7524 20.9733 18.7524 17.714C18.7524 17.4973 18.7749 17.3531 19.0196 17.2609C21.5991 16.2724 24.1725 15.2696 26.7497 14.2713C26.8247 14.2426 26.8998 14.2259 27.0011 14.1957L27.0003 14.1965ZM13.2078 11.9582C14.7133 11.3744 16.2173 10.7862 17.7265 10.2122C17.8852 10.1497 18.06 10.1423 18.2233 10.1911C20.6394 11.1134 23.052 12.0448 25.4611 12.9852C25.5136 13.0138 25.5638 13.0467 25.6112 13.0834L23.4648 13.9141C21.7386 14.5839 20.0193 15.2575 18.2916 15.9175C18.1344 15.9811 17.9607 15.9901 17.7978 15.9432C15.3715 15.0158 12.9504 14.0734 10.5285 13.134C10.4963 13.1211 10.4663 13.103 10.3664 13.0539L13.2078 11.9582ZM9.00505 14.3898C9.00505 14.3309 9.0118 14.2728 9.0178 14.1723L14.4258 16.2687C15.2769 16.5987 16.1257 16.9332 16.9775 17.2542C17.0614 17.2718 17.1358 17.3203 17.1861 17.3901C17.2365 17.4599 17.2592 17.546 17.2499 17.6317C17.2424 20.9494 17.2404 24.2671 17.2439 27.5848C17.2439 27.643 17.2349 27.7004 17.2274 27.7955C17.1372 27.777 17.048 27.7536 16.9603 27.7253C14.3956 26.7325 11.8309 25.7397 9.26622 24.7469C9.18315 24.7302 9.10931 24.6828 9.05929 24.614C9.00927 24.5452 8.9867 24.4601 8.99604 24.3754C9.00454 21.0461 9.00655 17.7166 9.00204 14.3868" fill="white"/>
<path d="M19.1941 33.6412C18.2034 32.8687 17.1978 32.115 16.1921 31.3666C16.0568 31.2589 15.8871 31.2044 15.7147 31.2133C15.5424 31.2222 15.3792 31.2939 15.2555 31.415C15.1716 31.4899 15.1057 31.583 15.0628 31.6873C15.0198 31.7916 15.001 31.9044 15.0076 32.0171C15.0143 32.1298 15.0462 32.2395 15.1011 32.3379C15.156 32.4364 15.2324 32.521 15.3245 32.5855C15.6735 32.8694 16.039 33.1345 16.472 33.4645C16.3122 33.4645 16.2566 33.4645 16.2011 33.4645C13.3205 33.3979 10.4502 33.0931 7.61924 32.553C6.00123 32.2837 4.42949 31.7843 2.95118 31.0699C2.50901 30.8316 2.09997 30.5358 1.73463 30.1901C1.66006 30.1338 1.59954 30.0608 1.55786 29.977C1.51617 29.8931 1.49447 29.8006 1.49447 29.7068C1.49447 29.613 1.51617 29.5205 1.55786 29.4366C1.59954 29.3527 1.66006 29.2797 1.73463 29.2235C1.95032 28.9749 2.20763 28.7664 2.49488 28.6073C3.25062 28.2402 4.02963 27.9201 4.80564 27.5961C4.99131 27.5365 5.14777 27.4085 5.24378 27.2379C5.33978 27.0672 5.36824 26.8664 5.32348 26.6755C5.27141 26.485 5.14792 26.3221 4.97898 26.2213C4.81004 26.1204 4.60882 26.0895 4.41764 26.1348C3.15549 26.463 1.97549 27.0531 0.953366 27.8672C0.656549 28.0758 0.414651 28.3539 0.248563 28.6776C0.0824751 29.0013 -0.00281076 29.3608 7.06586e-05 29.7251C0.00295208 30.0894 0.0939141 30.4475 0.265102 30.7685C0.436289 31.0895 0.682556 31.3637 0.982635 31.5675C1.74695 32.1948 2.61958 32.675 3.55682 32.9842C6.72772 34.0363 10.0245 34.656 13.359 34.8268C14.3714 34.9083 15.3853 34.9408 16.4938 35.0005C16.0548 35.3335 15.6758 35.6091 15.3103 35.9029C15.2287 35.9605 15.1595 36.034 15.1067 36.119C15.0538 36.204 15.0184 36.2988 15.0027 36.3978C14.9869 36.4967 14.9909 36.5979 15.0147 36.6953C15.0384 36.7926 15.0813 36.8842 15.1408 36.9646C15.2004 37.045 15.2753 37.1126 15.3612 37.1634C15.4472 37.2141 15.5423 37.247 15.6411 37.2601C15.7399 37.2732 15.8403 37.2662 15.9363 37.2396C16.0324 37.213 16.1222 37.1673 16.2004 37.1051C17.201 36.3646 18.1944 35.6144 19.1806 34.8547C19.2809 34.7895 19.3635 34.7002 19.4212 34.595C19.4789 34.4898 19.5098 34.3718 19.5111 34.2516C19.5124 34.1314 19.4842 34.0128 19.4289 33.9063C19.3735 33.7998 19.2929 33.7087 19.1941 33.6412Z" fill="white"/>
<path d="M12.2869 6.50512C12.087 6.50708 11.8875 6.48554 11.6925 6.44093C11.523 6.40139 11.3582 6.34366 11.201 6.26875C11.06 6.20152 10.9267 6.11924 10.8032 6.02332C10.6903 5.93541 10.5855 5.83734 10.4902 5.73032L10.8497 5.26513C11.0214 5.44109 11.2155 5.59344 11.4268 5.71823C11.6763 5.85778 11.9589 5.92619 12.2441 5.91609C12.5384 5.92951 12.8274 5.83445 13.0569 5.64876C13.1618 5.55825 13.2448 5.44493 13.2996 5.31736C13.3545 5.18979 13.3798 5.05134 13.3736 4.91247C13.3752 4.75996 13.3445 4.60885 13.2836 4.46919C13.2186 4.32806 13.1166 4.20744 12.9886 4.1203C12.8253 4.01043 12.6423 3.93349 12.4498 3.89376C12.1797 3.83805 11.9043 3.81272 11.6287 3.81824V3.27603C11.8748 3.28169 12.1206 3.25632 12.3605 3.20051C12.5323 3.16021 12.6948 3.08715 12.8393 2.98529C12.9547 2.90271 13.0451 2.78951 13.1004 2.6583C13.1516 2.52964 13.1771 2.3921 13.1755 2.25354C13.1816 2.1354 13.1622 2.01734 13.1187 1.90746C13.0751 1.79758 13.0085 1.69847 12.9233 1.61693C12.7318 1.45396 12.4855 1.371 12.2351 1.3851C12.0159 1.38282 11.7996 1.43606 11.6062 1.53991C11.4093 1.64775 11.2293 1.78413 11.0719 1.94467L10.6966 1.49686C10.9039 1.29878 11.1388 1.13215 11.3938 1.00223C11.664 0.869502 11.9616 0.803242 12.2621 0.808906C12.4853 0.806382 12.7075 0.838215 12.9211 0.903301C13.1091 0.960202 13.2847 1.05217 13.4389 1.17441C13.5835 1.29108 13.6991 1.44 13.7766 1.60938C13.8597 1.79617 13.9007 1.99911 13.8967 2.2037C13.9086 2.50095 13.811 2.79215 13.6228 3.02154C13.4277 3.2427 13.1808 3.41141 12.9046 3.5124V3.54713C13.0656 3.58565 13.221 3.64505 13.3669 3.72384C13.5071 3.80003 13.6339 3.89904 13.7421 4.01685C13.8497 4.13483 13.9342 4.27214 13.9913 4.42162C14.053 4.58664 14.0836 4.76183 14.0813 4.93815C14.0846 5.16412 14.0363 5.38784 13.9402 5.59212C13.8492 5.78319 13.7178 5.95198 13.5552 6.08675C13.3865 6.22488 13.1936 6.3299 12.9864 6.39637C12.7604 6.46982 12.5243 6.50653 12.2869 6.50512ZM16.8124 6.50512C16.5551 6.50747 16.3007 6.45146 16.0679 6.34125C15.8332 6.22676 15.6293 6.05711 15.4735 5.84661C15.2918 5.59805 15.157 5.31802 15.0757 5.02046C14.9725 4.64329 14.9235 4.25319 14.9301 3.86204C14.9205 3.38703 14.9781 2.91307 15.1013 2.45441C15.1933 2.11172 15.3502 1.79016 15.5636 1.50743C15.7386 1.27849 15.9659 1.09535 16.2262 0.973532C16.4724 0.862386 16.7392 0.805483 17.009 0.80664C17.2739 0.799469 17.5366 0.856992 17.7745 0.974287C17.9809 1.08058 18.1674 1.22185 18.3261 1.39189L17.9329 1.83064C17.8199 1.6995 17.6818 1.59264 17.5268 1.5165C17.3739 1.43987 17.2054 1.40006 17.0345 1.4002C16.8482 1.39988 16.6642 1.44114 16.4957 1.52103C16.3142 1.61167 16.1591 1.74798 16.0454 1.91673C15.8983 2.1356 15.7911 2.37903 15.7287 2.63565C15.64 2.99454 15.5959 3.3631 15.5973 3.7329C15.7619 3.52622 15.9661 3.35493 16.1977 3.22921C16.404 3.11176 16.6362 3.04815 16.8732 3.04419C17.0806 3.03408 17.2879 3.06627 17.4826 3.13881C17.6774 3.21135 17.8555 3.32276 18.0064 3.46633C18.1581 3.63934 18.2737 3.84127 18.3463 4.06013C18.4189 4.27898 18.447 4.51029 18.4289 4.74029C18.4323 4.98599 18.3887 5.23005 18.3006 5.45921C18.2208 5.66541 18.1017 5.85395 17.9501 6.01426C17.8043 6.16757 17.6298 6.29048 17.4368 6.37598C17.24 6.46268 17.0272 6.50668 16.8124 6.50512ZM16.8124 5.94554C16.9427 5.94694 17.0715 5.91745 17.1884 5.85945C17.3047 5.80039 17.4068 5.71666 17.4878 5.61402C17.5769 5.50138 17.6451 5.37347 17.689 5.23644C17.7402 5.07669 17.7656 4.90967 17.764 4.74181C17.7812 4.43754 17.6935 4.13663 17.5156 3.88998C17.4215 3.7813 17.3035 3.69623 17.171 3.64155C17.0385 3.58688 16.8951 3.56412 16.7523 3.57508C16.5503 3.58207 16.3532 3.63969 16.179 3.74272C15.9487 3.87873 15.755 4.06926 15.6146 4.29777C15.6263 4.73407 15.7549 5.15909 15.9868 5.52793C16.079 5.66121 16.2028 5.76921 16.3469 5.84214C16.4911 5.91506 16.6511 5.95061 16.8124 5.94554ZM20.9018 6.50512C20.64 6.5109 20.3816 6.44512 20.154 6.3148C19.9264 6.18448 19.7382 5.99448 19.6095 5.76505C19.2638 5.11252 19.1038 4.37666 19.1472 3.63851C19.1023 2.90579 19.2625 2.17509 19.6095 1.52933C19.741 1.30379 19.9302 1.11782 20.1573 0.990726C20.3844 0.863636 20.6412 0.800073 20.9011 0.80664C21.1596 0.800771 21.415 0.864708 21.6407 0.991802C21.8664 1.1189 22.0541 1.30451 22.1844 1.52933C22.5314 2.17509 22.6916 2.90579 22.6467 3.63851C22.69 4.37666 22.5301 5.11252 22.1844 5.76505C22.0569 5.9936 21.8703 6.18311 21.6443 6.31342C21.4183 6.44374 21.1615 6.50998 20.9011 6.50512H20.9018ZM20.9018 5.93723C21.0559 5.93875 21.2067 5.89204 21.3333 5.80357C21.4773 5.6951 21.5918 5.55204 21.6666 5.38747C21.7732 5.16117 21.8467 4.92056 21.885 4.67309C21.9398 4.33006 21.9649 3.98289 21.96 3.63549C21.965 3.28959 21.9399 2.94391 21.885 2.60242C21.8474 2.35892 21.7737 2.12244 21.6666 1.90087C21.5903 1.74144 21.4754 1.60383 21.3326 1.50064C21.2048 1.41468 21.0541 1.36966 20.9003 1.3715C20.7455 1.37016 20.5937 1.4151 20.4643 1.50064C20.3194 1.60268 20.2031 1.74052 20.1265 1.90087C20.0194 2.12244 19.9457 2.35892 19.9082 2.60242C19.8532 2.94391 19.8281 3.28959 19.8331 3.63549C19.7942 4.2345 19.8947 4.83438 20.1265 5.38747C20.1898 5.54403 20.2964 5.679 20.4337 5.77633C20.5711 5.87366 20.7333 5.92924 20.9011 5.93648L20.9018 5.93723ZM24.4434 2.70966C24.3045 2.7109 24.1666 2.68526 24.0374 2.63414C23.9105 2.58336 23.7943 2.50879 23.6951 2.41439C23.5927 2.31592 23.5121 2.19677 23.4587 2.06475C23.3999 1.92113 23.3708 1.76696 23.3732 1.61165C23.3704 1.45385 23.3995 1.29714 23.4587 1.151C23.513 1.02002 23.5929 0.901364 23.6936 0.802109C23.7917 0.70456 23.908 0.627557 24.0359 0.57556C24.1651 0.524438 24.303 0.4988 24.4419 0.500043C24.5808 0.4988 24.7186 0.524438 24.8479 0.57556C24.9757 0.627557 25.0921 0.70456 25.1901 0.802109C25.2909 0.901364 25.3708 1.02002 25.425 1.151C25.4842 1.29714 25.5133 1.45385 25.5106 1.61165C25.5129 1.76696 25.4838 1.92113 25.425 2.06475C25.3714 2.19474 25.2914 2.31203 25.1901 2.4091C25.0909 2.5035 24.9748 2.57808 24.8479 2.62885C24.7192 2.68143 24.5816 2.70861 24.4426 2.7089L24.4434 2.70966ZM24.4434 2.31395C24.5301 2.31652 24.6163 2.30017 24.6961 2.26602C24.7759 2.23186 24.8474 2.18072 24.9057 2.1161C25.0272 1.97918 25.0914 1.80036 25.085 1.61693C25.0934 1.42796 25.0292 1.243 24.9057 1.1004C24.8474 1.03578 24.7759 0.984634 24.6961 0.950479C24.6163 0.916324 24.5301 0.899971 24.4434 0.902546C24.3567 0.899971 24.2705 0.916324 24.1907 0.950479C24.1109 0.984634 24.0394 1.03578 23.9811 1.1004C23.8576 1.243 23.7933 1.42796 23.8017 1.61693C23.7953 1.80036 23.8596 1.97918 23.9811 2.1161C24.0393 2.18048 24.1108 2.23143 24.1904 2.26545C24.2701 2.29947 24.3561 2.31575 24.4426 2.31319L24.4434 2.31395Z" fill="white"/>
</svg>
