<svg width="34" height="34" viewBox="0 0 34 34" fill="none" xmlns="http://www.w3.org/2000/svg">
<path fill-rule="evenodd" clip-rule="evenodd" d="M19.0569 13.7572L17.4098 13.374L18.9705 15.0066C19.4571 15.5157 19.4389 16.3228 18.9298 16.8093L18.4057 17.3103L17.4917 18.184L16.9675 18.6849C16.4585 19.1715 15.6514 19.1533 15.1648 18.6442L13.6044 17.0113L13.9127 18.674C14.0595 19.4654 14.7411 20.0454 15.5458 20.0636L18.1751 20.123C18.8512 20.1383 19.4936 20.4215 19.9609 20.9104L27.6458 28.9506L27.7173 28.8823L27.7173 28.8823L28.7028 27.9404L21.0179 19.9002C20.5506 19.4113 20.2966 18.7568 20.3119 18.0806L20.3713 15.4514C20.3895 14.6467 19.8409 13.9395 19.0569 13.7572ZM29.8059 29.2376L29.8774 29.1693C30.5561 28.5206 30.5804 27.4444 29.9317 26.7657L22.2468 18.7255C22.091 18.5626 22.0064 18.3444 22.0115 18.119L22.0709 15.4897C22.1072 13.8804 21.01 12.4661 19.4421 12.1014L16.4062 11.3952C15.172 11.1081 14.3201 12.6021 15.1957 13.5181L17.448 15.8741L17.2311 16.0814L16.317 16.955L16.1002 17.1623L13.8483 14.806C12.9728 13.8899 11.4418 14.6734 11.6729 15.9194L12.2412 18.984C12.5348 20.5668 13.8981 21.7268 15.5074 21.7632L18.1367 21.8226C18.3621 21.8277 18.5762 21.9221 18.732 22.0851L26.4169 30.1253C27.0656 30.804 28.1417 30.8283 28.8204 30.1796L29.8059 29.2376L29.8059 29.2376Z" fill="white"/>
<path d="M16.5754 28.067H14.8966C13.6259 28.067 12.5889 27.0342 12.5889 25.7592C12.5889 25.4745 12.3764 25.1982 12.0534 25.075C11.9429 25.0282 11.8324 24.9857 11.7304 24.939C11.4754 24.8285 11.1056 24.8157 10.8719 25.0495C10.4341 25.4872 9.85614 25.7252 9.23989 25.7252C8.62364 25.7252 8.04562 25.4872 7.60787 25.0495L6.42213 23.8638C5.98863 23.426 5.74637 22.848 5.74637 22.2317C5.74637 21.6155 5.98438 21.0375 6.42213 20.5997C6.62188 20.4 6.66438 20.0515 6.52838 19.737L6.50714 19.686C6.46889 19.5967 6.43489 19.5117 6.39664 19.4225C6.26914 19.0995 5.99289 18.8827 5.70814 18.8827C4.43739 18.8827 3.40039 17.85 3.40039 16.575V14.8962C3.40039 13.6255 4.43314 12.5885 5.70814 12.5885C5.99289 12.5885 6.26913 12.376 6.39238 12.053C6.43488 11.9467 6.47738 11.8405 6.52413 11.7342C6.63888 11.4707 6.65163 11.101 6.41788 10.8715C5.98438 10.4338 5.74212 9.85574 5.74212 9.23949C5.74212 8.62324 5.98013 8.04525 6.41788 7.6075L7.60362 6.42174C8.03712 5.98824 8.61938 5.746 9.23563 5.746C9.85188 5.746 10.4299 5.98399 10.8634 6.42174C11.0631 6.62149 11.4116 6.66399 11.7304 6.52799C11.8324 6.48549 11.9386 6.43874 12.0449 6.39624C12.3679 6.26874 12.5846 5.99249 12.5846 5.70774C12.5846 4.43699 13.6216 3.39999 14.8924 3.39999H16.5669C17.8376 3.39999 18.8746 4.43274 18.8746 5.70774C18.8746 5.99249 19.0914 6.26874 19.4101 6.39624C19.5164 6.43874 19.6226 6.48549 19.7289 6.53224C19.9881 6.64274 20.3579 6.65549 20.5874 6.42174C21.0251 5.98824 21.6031 5.746 22.2194 5.746C22.8356 5.746 23.4136 5.98399 23.8471 6.42174L25.0329 7.6075C25.4664 8.04525 25.7086 8.62324 25.7086 9.23949C25.7086 9.85574 25.4706 10.4338 25.0329 10.8715C24.8331 11.0713 24.7906 11.4197 24.9266 11.7385C24.9734 11.8447 25.0159 11.9467 25.0584 12.0572C25.1859 12.376 25.4621 12.5927 25.7426 12.5927C27.0134 12.5927 28.0504 13.6255 28.0504 14.9005V16.5792C28.0504 17.85 27.0176 18.887 25.7426 18.887C25.4579 18.887 25.1816 19.0995 25.0584 19.4225C25.0116 19.533 24.9691 19.6435 24.9224 19.7497L23.3711 19.057C23.4094 18.972 23.4434 18.8827 23.4816 18.7977C23.8641 17.8245 24.7566 17.1912 25.7469 17.1912C26.0826 17.1912 26.3546 16.9193 26.3546 16.5835V14.9047C26.3546 14.569 26.0826 14.297 25.7469 14.297C24.7566 14.297 23.8641 13.6637 23.4816 12.6862C23.4476 12.597 23.4094 12.5077 23.3711 12.4227C22.9546 11.458 23.1331 10.3827 23.8344 9.68148C23.9491 9.56673 24.0129 9.41375 24.0129 9.25225C24.0129 9.09075 23.9491 8.93775 23.8344 8.823L22.6486 7.63723C22.4234 7.41198 22.0196 7.41198 21.7901 7.63723C21.0889 8.33848 20.0136 8.52124 19.0489 8.10049C18.9596 8.06224 18.8704 8.02399 18.7854 7.98999C17.8079 7.60324 17.1746 6.71498 17.1746 5.72473C17.1746 5.38898 16.9026 5.11698 16.5669 5.11698H14.8924C14.5566 5.11698 14.2846 5.38898 14.2846 5.72473C14.2846 6.71498 13.6514 7.60749 12.6739 7.98999C12.5889 8.02399 12.4996 8.06224 12.4104 8.10049C11.4456 8.51699 10.3704 8.33848 9.66489 7.63723C9.43539 7.40773 9.03588 7.40773 8.80638 7.63723L7.62064 8.823C7.50589 8.93775 7.44212 9.09075 7.44212 9.25225C7.44212 9.41375 7.50589 9.56673 7.62064 9.68148C8.32189 10.3827 8.50462 11.4622 8.08387 12.427C8.04562 12.512 8.01162 12.6012 7.97337 12.6905C7.58662 13.668 6.69839 14.3013 5.70814 14.3013C5.37239 14.3013 5.10039 14.5733 5.10039 14.909V16.5877C5.10039 16.9235 5.37239 17.1955 5.70814 17.1955C6.69839 17.1955 7.59087 17.8287 7.97337 18.8062C8.00312 18.8827 8.03714 18.9592 8.07114 19.04L8.08813 19.0825C8.50463 20.0388 8.32189 21.114 7.62064 21.8153C7.50589 21.93 7.44212 22.083 7.44212 22.2445C7.44212 22.406 7.50589 22.559 7.62064 22.6737L8.80638 23.8595C9.03163 24.0848 9.43539 24.0848 9.66489 23.8595C10.3661 23.1583 11.4414 22.9755 12.4061 23.3962C12.4996 23.4387 12.5846 23.4727 12.6739 23.5067C13.6471 23.8892 14.2804 24.7818 14.2804 25.772C14.2804 26.1077 14.5524 26.3797 14.8881 26.3797H16.5669C16.9026 26.3797 17.1746 26.1077 17.1746 25.772C17.1746 24.7818 17.8079 23.8935 18.7854 23.5067C18.8789 23.4727 18.9639 23.4345 19.0489 23.4005L19.7289 24.9602C19.6226 25.007 19.5164 25.0495 19.4059 25.092C19.0914 25.2152 18.8746 25.4915 18.8746 25.7763C18.8746 27.047 17.8419 28.084 16.5669 28.084L16.5754 28.067Z" fill="white"/>
</svg>
