<svg width="34" height="34" viewBox="0 0 34 34" fill="none" xmlns="http://www.w3.org/2000/svg">
<path fill-rule="evenodd" clip-rule="evenodd" d="M18.7004 5.95001C19.1698 5.95001 19.5504 6.33057 19.5504 6.80001V9.77501H22.5254C22.9948 9.77501 23.3754 10.1556 23.3754 10.625C23.3754 11.0945 22.9948 11.475 22.5254 11.475H19.5504V14.45C19.5504 14.9195 19.1698 15.3 18.7004 15.3C18.2309 15.3 17.8504 14.9195 17.8504 14.45V11.475H14.8754C14.4059 11.475 14.0254 11.0945 14.0254 10.625C14.0254 10.1556 14.4059 9.77501 14.8754 9.77501H17.8504V6.80001C17.8504 6.33057 18.2309 5.95001 18.7004 5.95001ZM28.1563 16.3448C28.4958 16.1647 28.9171 16.2912 29.1012 16.6287C29.2469 16.8958 29.2039 17.2264 28.9946 17.4473L22.941 23.8372C22.5007 24.302 21.9508 24.6488 21.3416 24.8459L16.9199 26.2764C16.0397 26.5612 15.0861 26.5173 14.2357 26.1529L11.8663 25.1374C11.4431 24.956 10.9874 24.8625 10.527 24.8625H8.50039V18.0625H13.3309C13.395 18.0625 13.4584 18.0754 13.5174 18.1003L17.5085 19.7889C17.7726 19.9006 17.8926 20.2081 17.7739 20.4692C17.6694 20.699 17.4126 20.8177 17.1699 20.7484L12.3464 19.3702C11.895 19.2413 11.4246 19.5026 11.2956 19.954C11.1666 20.4054 11.428 20.8758 11.8794 21.0048L16.7029 22.3829C17.755 22.6836 18.8687 22.1688 19.3215 21.1727C19.3483 21.1138 19.3722 21.0543 19.3935 20.9945L28.1563 16.3448ZM10.527 26.5625H8.50039V27.625C8.50039 28.0945 8.11983 28.475 7.65039 28.475H3.40039V14.875H7.65039C8.11983 14.875 8.50039 15.2556 8.50039 15.725V16.3625H13.3309C13.6225 16.3625 13.9112 16.4211 14.1798 16.5347L18.1709 18.2232C18.6341 18.4192 18.9951 18.7542 19.2266 19.1585L27.3595 14.8432C28.5216 14.2265 29.9636 14.6596 30.5936 15.8146C31.0923 16.7289 30.945 17.8604 30.2287 18.6165L24.1751 25.0064C23.5391 25.6777 22.7448 26.1787 21.8649 26.4633L17.4432 27.8939C16.1718 28.3052 14.7943 28.2418 13.5661 27.7154L11.1966 26.7C10.985 26.6093 10.7572 26.5625 10.527 26.5625ZM6.80039 16.575H5.10039V26.775H6.80039V16.575Z" fill="white"/>
</svg>
