<svg width="34" height="34" viewBox="0 0 34 34" fill="none" xmlns="http://www.w3.org/2000/svg">
<path fill-rule="evenodd" clip-rule="evenodd" d="M13.5603 8.89348L13.074 7.04555L10.1562 8.89348H13.5603ZM14.5702 6.0513L15.159 8.28861L19.88 5.29863C20.6086 4.83715 21.5757 5.2172 21.7952 6.0513L22.5431 8.89348H24.2254C25.8684 8.89348 27.2004 10.2254 27.2004 11.8685V15.6935H28.9004C29.8393 15.6935 30.6004 16.4546 30.6004 17.3935V20.7935C30.6004 21.7324 29.8393 22.4935 28.9004 22.4935H27.2004V26.3185C27.2004 27.9615 25.8684 29.2935 24.2254 29.2935H6.37539C4.73234 29.2935 3.40039 27.9615 3.40039 26.3185V11.8685C3.40039 10.2254 4.73234 8.89348 6.37539 8.89348H6.97889L12.655 5.29863C13.3836 4.83715 14.3507 5.2172 14.5702 6.0513ZM20.299 7.04555L20.7853 8.89348H17.3812L20.299 7.04555ZM25.5004 11.8685V15.6935H23.8004C21.9226 15.6935 20.4004 17.2157 20.4004 19.0935C20.4004 20.9713 21.9226 22.4935 23.8004 22.4935H25.5004V26.3185C25.5004 27.0226 24.9296 27.5935 24.2254 27.5935H6.37539C5.67123 27.5935 5.10039 27.0226 5.10039 26.3185V11.8685C5.10039 11.1643 5.67123 10.5935 6.37539 10.5935H24.2254C24.9296 10.5935 25.5004 11.1643 25.5004 11.8685ZM28.9004 17.3935H23.8004C22.8615 17.3935 22.1004 18.1546 22.1004 19.0935C22.1004 20.0324 22.8615 20.7935 23.8004 20.7935H28.9004V17.3935ZM23.8004 19.9435C24.2698 19.9435 24.6504 19.5629 24.6504 19.0935C24.6504 18.624 24.2698 18.2435 23.8004 18.2435C23.3309 18.2435 22.9504 18.624 22.9504 19.0935C22.9504 19.5629 23.3309 19.9435 23.8004 19.9435Z" fill="white"/>
</svg>
