<svg width="40" height="37" viewBox="0 0 40 37" fill="none" xmlns="http://www.w3.org/2000/svg">
<path d="M39.0179 27.4238C37.8597 26.579 36.5146 25.9694 35.0736 25.6363C34.8748 25.5892 34.6635 25.6144 34.4848 25.7063C34.3061 25.7983 34.1742 25.9499 34.1172 26.1287C34.0474 26.3026 34.0535 26.494 34.1342 26.6639C34.215 26.8339 34.3642 26.9695 34.5516 27.0432C34.7509 27.1278 34.9686 27.1806 35.1729 27.2486C36.1067 27.5086 36.9838 27.9131 37.7654 28.444C38.5159 29.0036 38.5242 29.4582 37.7554 29.9831C37.3291 30.2722 36.8698 30.519 36.3853 30.7193C34.2421 31.5451 31.9808 32.0925 29.6684 32.3452C28.3709 32.5219 27.0626 32.6299 25.7592 32.7734C25.5404 32.7847 25.3356 32.8741 25.1895 33.022C25.0435 33.17 24.9682 33.3643 24.9803 33.5625C24.9923 33.7606 25.0907 33.9463 25.2537 34.0788C25.4168 34.2114 25.6313 34.2799 25.8501 34.2694C25.9803 34.2721 26.1104 34.2658 26.2395 34.2505C28.3342 33.9726 30.4373 33.7362 32.5203 33.3979C34.3194 33.1302 36.0606 32.607 37.6795 31.8476C38.2181 31.6372 38.7026 31.3277 39.1021 30.9387C39.5016 30.5498 39.8074 30.0898 40.0002 29.5881V28.879C39.8373 28.3172 39.4957 27.8112 39.0179 27.4238Z" fill="white"/>
<path d="M8.34278 24.336C8.34278 25.1048 8.42617 25.2188 9.20001 25.4884C12.6789 26.7042 16.1562 27.9246 19.641 29.1268C19.8831 29.2008 20.1457 29.1989 20.3865 29.1215C23.8954 27.9132 27.3969 26.6793 30.9 25.4544C31.5304 25.2339 31.6597 25.0678 31.6605 24.4546C31.6605 22.5178 31.6605 20.5811 31.6605 18.6443H31.678C31.678 16.6371 31.678 14.6299 31.678 12.6226C31.6923 12.4496 31.641 12.2774 31.5326 12.1343C31.4242 11.9913 31.2652 11.886 31.0818 11.8358C27.5662 10.6109 24.0505 9.38475 20.5349 8.15735C20.3679 8.09437 20.1888 8.06195 20.0079 8.06195C19.827 8.06195 19.6479 8.09437 19.4809 8.15735C15.968 9.38827 12.4527 10.6144 8.93483 11.8358C8.74535 11.8859 8.58104 11.9941 8.47011 12.142C8.35919 12.2899 8.30856 12.4681 8.32693 12.6461C8.32693 12.8583 8.34195 13.0705 8.34278 13.2834C8.34278 16.9676 8.34278 20.6521 8.34278 24.3368V24.336ZM30.0011 13.6965V14.0363C30.0011 17.2956 30.0011 20.5549 30.0011 23.8142C30.0011 24.0309 29.9761 24.1669 29.7034 24.2605C26.8365 25.2475 23.978 26.2519 21.1145 27.2502C21.0436 27.2751 20.9677 27.2887 20.8368 27.3219V26.9919C20.8368 23.7326 20.8368 20.4733 20.8368 17.214C20.8368 16.9973 20.8618 16.8531 21.1336 16.7609C23.9997 15.7724 26.859 14.7696 29.7226 13.7713C29.806 13.7426 29.8894 13.7259 30.0019 13.6957L30.0011 13.6965ZM14.6761 11.4582C16.3488 10.8744 18.0199 10.2862 19.6969 9.71224C19.8731 9.6497 20.0674 9.64225 20.2489 9.69109C22.9334 10.6134 25.6141 11.5448 28.2908 12.4852C28.3492 12.5138 28.405 12.5467 28.4576 12.5834L26.0727 13.4141C24.1548 14.0839 22.2444 14.7575 20.3248 15.4175C20.1501 15.4811 19.957 15.4901 19.7761 15.4432C17.0802 14.5158 14.3901 13.5734 11.6991 12.634C11.6633 12.6211 11.6299 12.603 11.519 12.5539L14.6761 11.4582ZM10.0064 13.8898C10.0064 13.8309 10.0139 13.7728 10.0205 13.6723L16.0295 15.7687C16.9751 16.0987 17.9182 16.4332 18.8646 16.7542C18.9579 16.7718 19.0405 16.8203 19.0964 16.8901C19.1524 16.9599 19.1777 17.046 19.1673 17.1317C19.159 20.4494 19.1568 23.7671 19.1607 27.0848C19.1607 27.143 19.1507 27.2004 19.1423 27.2955C19.042 27.277 18.9429 27.2536 18.8455 27.2253C15.9958 26.2325 13.1462 25.2397 10.2966 24.2469C10.2043 24.2302 10.1222 24.1828 10.0666 24.114C10.0111 24.0452 9.98598 23.9601 9.99635 23.8754C10.0058 20.5461 10.008 17.2166 10.003 13.8868" fill="white"/>
<path d="M21.3277 33.1412C20.227 32.3687 19.1096 31.615 17.9922 30.8666C17.8418 30.7589 17.6533 30.7044 17.4618 30.7133C17.2703 30.7222 17.0889 30.7939 16.9515 30.915C16.8583 30.9899 16.7851 31.083 16.7373 31.1873C16.6896 31.2916 16.6687 31.4044 16.6761 31.5171C16.6835 31.6298 16.719 31.7395 16.78 31.8379C16.841 31.9364 16.9258 32.021 17.0282 32.0855C17.416 32.3694 17.8221 32.6345 18.3032 32.9645C18.1256 32.9645 18.0639 32.9645 18.0022 32.9645C14.8015 32.8979 11.6123 32.5931 8.46677 32.053C6.669 31.7837 4.92262 31.2843 3.28005 30.5699C2.78876 30.3316 2.33427 30.0358 1.92834 29.6901C1.84549 29.6338 1.77824 29.5608 1.73192 29.477C1.68561 29.3931 1.6615 29.3006 1.6615 29.2068C1.6615 29.113 1.68561 29.0205 1.73192 28.9366C1.77824 28.8527 1.84549 28.7797 1.92834 28.7235C2.16799 28.4749 2.45389 28.2664 2.77306 28.1073C3.61277 27.7402 4.47834 27.4201 5.34057 27.0961C5.54686 27.0365 5.72071 26.9085 5.82738 26.7379C5.93405 26.5672 5.96568 26.3664 5.91594 26.1755C5.85809 25.985 5.72088 25.8221 5.53316 25.7213C5.34545 25.6204 5.12187 25.5895 4.90945 25.6348C3.50707 25.963 2.19596 26.5531 1.06027 27.3672C0.730473 27.5758 0.461699 27.8539 0.277157 28.1776C0.0926153 28.5013 -0.0021465 28.8608 0.00105507 29.2251C0.00425664 29.5894 0.105325 29.9475 0.295533 30.2685C0.485741 30.5895 0.75937 30.8637 1.09279 31.0675C1.94203 31.6948 2.91161 32.175 3.95299 32.4842C7.4762 33.5363 11.1392 34.156 14.8443 34.3268C15.9692 34.4083 17.0957 34.4408 18.3274 34.5005C17.8396 34.8335 17.4185 35.1091 17.0124 35.4029C16.9217 35.4605 16.8448 35.534 16.7861 35.619C16.7274 35.704 16.6881 35.7988 16.6706 35.8978C16.653 35.9967 16.6575 36.0979 16.6839 36.1953C16.7103 36.2926 16.758 36.3842 16.8241 36.4646C16.8902 36.545 16.9735 36.6126 17.069 36.6634C17.1644 36.7141 17.2702 36.747 17.3799 36.7601C17.4897 36.7732 17.6012 36.7662 17.708 36.7396C17.8147 36.713 17.9145 36.6673 18.0013 36.6051C19.1132 35.8646 20.2169 35.1144 21.3127 34.3547C21.4241 34.2895 21.516 34.2002 21.58 34.095C21.6441 33.9898 21.6784 33.8718 21.6799 33.7516C21.6814 33.6314 21.65 33.5128 21.5886 33.4063C21.5271 33.2998 21.4375 33.2087 21.3277 33.1412Z" fill="white"/>
<path d="M13.653 6.00512C13.4309 6.00708 13.2092 5.98554 12.9926 5.94093C12.8043 5.90139 12.6212 5.84366 12.4464 5.76875C12.2898 5.70152 12.1416 5.61924 12.0045 5.52332C11.879 5.43541 11.7626 5.33734 11.6567 5.23032L12.0562 4.76513C12.2469 4.94109 12.4626 5.09344 12.6974 5.21823C12.9746 5.35778 13.2886 5.42619 13.6055 5.41609C13.9324 5.42951 14.2535 5.33445 14.5086 5.14876C14.6251 5.05825 14.7173 4.94493 14.7783 4.81736C14.8393 4.68979 14.8674 4.55134 14.8605 4.41247C14.8623 4.25996 14.8281 4.10885 14.7604 3.96919C14.6883 3.82806 14.575 3.70744 14.4327 3.6203C14.2512 3.51043 14.0479 3.43349 13.834 3.39376C13.5339 3.33805 13.228 3.31272 12.9217 3.31824V2.77603C13.1952 2.78169 13.4683 2.75632 13.7348 2.70051C13.9257 2.66021 14.1062 2.58715 14.2668 2.48529C14.395 2.40271 14.4955 2.28951 14.557 2.1583C14.6138 2.02964 14.6421 1.8921 14.6404 1.75354C14.6471 1.6354 14.6256 1.51734 14.5772 1.40746C14.5288 1.29758 14.4548 1.19847 14.3602 1.11693C14.1474 0.953962 13.8737 0.871 13.5955 0.885097C13.3519 0.882823 13.1116 0.936059 12.8967 1.03991C12.678 1.14775 12.4779 1.28413 12.303 1.44467L11.8861 0.996861C12.1164 0.798782 12.3773 0.632154 12.6607 0.502228C12.9609 0.369502 13.2916 0.303242 13.6255 0.308906C13.8735 0.306382 14.1204 0.338215 14.3577 0.403301C14.5665 0.460202 14.7617 0.552169 14.933 0.674406C15.0937 0.791079 15.2222 0.939995 15.3083 1.10938C15.4005 1.29617 15.4461 1.49911 15.4417 1.7037C15.4549 2.00095 15.3465 2.29215 15.1373 2.52154C14.9205 2.7427 14.6463 2.91141 14.3393 3.0124V3.04713C14.5183 3.08565 14.6909 3.14505 14.853 3.22384C15.0089 3.30003 15.1497 3.39904 15.2699 3.51685C15.3895 3.63483 15.4834 3.77214 15.5468 3.92162C15.6154 4.08664 15.6493 4.26183 15.6468 4.43815C15.6505 4.66412 15.5968 4.88784 15.4901 5.09212C15.3889 5.28319 15.2429 5.45198 15.0623 5.58675C14.8749 5.72488 14.6605 5.8299 14.4302 5.89637C14.1792 5.96982 13.9168 6.00653 13.653 6.00512ZM18.6813 6.00512C18.3955 6.00747 18.1128 5.95146 17.8541 5.84125C17.5933 5.72676 17.3668 5.55711 17.1937 5.34661C16.9918 5.09805 16.842 4.81802 16.7517 4.52046C16.6371 4.14329 16.5826 3.75319 16.59 3.36204C16.5792 2.88703 16.6432 2.41307 16.7801 1.95441C16.8823 1.61172 17.0567 1.29016 17.2938 1.00743C17.4883 0.778485 17.7408 0.59535 18.0301 0.473532C18.3035 0.362386 18.6001 0.305483 18.8998 0.30664C19.1941 0.299469 19.486 0.356992 19.7504 0.474287C19.9796 0.580577 20.187 0.721846 20.3633 0.891893L19.9263 1.33064C19.8008 1.1995 19.6474 1.09264 19.4752 1.0165C19.3053 0.939869 19.118 0.900057 18.9282 0.9002C18.7212 0.899876 18.5167 0.941143 18.3294 1.02103C18.1278 1.11167 17.9554 1.24798 17.8291 1.41673C17.6657 1.6356 17.5466 1.87903 17.4772 2.13565C17.3787 2.49454 17.3297 2.8631 17.3313 3.2329C17.5141 3.02622 17.741 2.85493 17.9984 2.72921C18.2276 2.61176 18.4856 2.54815 18.7489 2.54419C18.9793 2.53408 19.2097 2.56627 19.4261 2.63881C19.6424 2.71135 19.8404 2.82276 20.008 2.96633C20.1766 3.13934 20.305 3.34127 20.3857 3.56013C20.4663 3.77898 20.4975 4.01029 20.4775 4.24029C20.4812 4.48599 20.4328 4.73005 20.3349 4.95921C20.2462 5.16541 20.1139 5.35395 19.9455 5.51426C19.7834 5.66757 19.5896 5.79048 19.3751 5.87598C19.1564 5.96268 18.92 6.00668 18.6813 6.00512ZM18.6813 5.44554C18.8261 5.44694 18.9692 5.41745 19.0991 5.35945C19.2283 5.30039 19.3418 5.21666 19.4318 5.11402C19.5308 5.00138 19.6065 4.87347 19.6553 4.73644C19.7123 4.57669 19.7404 4.40967 19.7387 4.24181C19.7578 3.93754 19.6603 3.63663 19.4627 3.38998C19.3582 3.2813 19.2271 3.19623 19.0798 3.14155C18.9326 3.08688 18.7733 3.06412 18.6146 3.07508C18.3902 3.08207 18.1712 3.13969 17.9775 3.24272C17.7217 3.37873 17.5064 3.56926 17.3505 3.79777C17.3635 4.23407 17.5064 4.65909 17.7641 5.02793C17.8665 5.16121 18.004 5.26921 18.1642 5.34214C18.3244 5.41506 18.5021 5.45061 18.6813 5.44554ZM23.2251 6.00512C22.9343 6.0109 22.6471 5.94512 22.3942 5.8148C22.1414 5.68448 21.9323 5.49448 21.7892 5.26505C21.4051 4.61252 21.2274 3.87666 21.2755 3.13851C21.2257 2.40579 21.4036 1.67509 21.7892 1.02933C21.9353 0.803794 22.1455 0.617816 22.3979 0.490726C22.6503 0.363636 22.9356 0.300073 23.2243 0.30664C23.5116 0.300771 23.7954 0.364708 24.0461 0.491802C24.2969 0.618896 24.5055 0.804506 24.6502 1.02933C25.0358 1.67509 25.2137 2.40579 25.1639 3.13851C25.212 3.87666 25.0343 4.61252 24.6502 5.26505C24.5086 5.4936 24.3012 5.68311 24.0501 5.81342C23.799 5.94374 23.5136 6.00998 23.2243 6.00512H23.2251ZM23.2251 5.43723C23.3964 5.43875 23.5639 5.39204 23.7046 5.30357C23.8645 5.1951 23.9918 5.05204 24.0749 4.88747C24.1933 4.66117 24.275 4.42056 24.3175 4.17309C24.3784 3.83006 24.4063 3.48289 24.4009 3.13549C24.4065 2.78959 24.3785 2.44391 24.3175 2.10242C24.2757 1.85892 24.1939 1.62244 24.0749 1.40087C23.9901 1.24144 23.8625 1.10383 23.7038 1.00064C23.5617 0.91468 23.3943 0.869663 23.2235 0.871503C23.0514 0.870159 22.8828 0.915102 22.739 1.00064C22.5781 1.10268 22.4488 1.24052 22.3637 1.40087C22.2446 1.62244 22.1628 1.85892 22.1211 2.10242C22.06 2.44391 22.0321 2.78959 22.0377 3.13549C21.9944 3.7345 22.1061 4.33438 22.3637 4.88747C22.434 5.04403 22.5525 5.179 22.7051 5.27633C22.8576 5.37366 23.0378 5.42924 23.2243 5.43648L23.2251 5.43723ZM27.1602 2.20966C27.0059 2.2109 26.8527 2.18526 26.7091 2.13414C26.5681 2.08336 26.4391 2.00879 26.3288 1.91439C26.215 1.81592 26.1255 1.69677 26.0662 1.56475C26.0008 1.42113 25.9685 1.26696 25.9711 1.11165C25.968 0.953854 26.0004 0.797143 26.0662 0.650995C26.1264 0.520017 26.2152 0.401364 26.3272 0.302109C26.4361 0.20456 26.5654 0.127557 26.7074 0.0755595C26.851 0.0244377 27.0042 -0.00119966 27.1585 4.31109e-05C27.3129 -0.00119966 27.466 0.0244377 27.6097 0.0755595C27.7517 0.127557 27.881 0.20456 27.9899 0.302109C28.1019 0.401364 28.1906 0.520017 28.2509 0.650995C28.3167 0.797143 28.349 0.953854 28.346 1.11165C28.3486 1.26696 28.3163 1.42113 28.2509 1.56475C28.1913 1.69474 28.1024 1.81203 27.9899 1.9091C27.8797 2.0035 27.7506 2.07808 27.6097 2.12885C27.4666 2.18143 27.3137 2.20861 27.1594 2.2089L27.1602 2.20966ZM27.1602 1.81395C27.2565 1.81652 27.3523 1.80017 27.441 1.76602C27.5297 1.73186 27.6091 1.68072 27.6739 1.6161C27.8089 1.47918 27.8802 1.30036 27.8732 1.11693C27.8825 0.927963 27.8111 0.743001 27.6739 0.600399C27.6091 0.53578 27.5297 0.484634 27.441 0.450479C27.3523 0.416324 27.2565 0.399971 27.1602 0.402546C27.0639 0.399971 26.9681 0.416324 26.8794 0.450479C26.7907 0.484634 26.7113 0.53578 26.6465 0.600399C26.5093 0.743001 26.4379 0.927963 26.4472 1.11693C26.4402 1.30036 26.5115 1.47918 26.6465 1.6161C26.7113 1.68048 26.7906 1.73143 26.8791 1.76545C26.9677 1.79947 27.0632 1.81575 27.1594 1.81319L27.1602 1.81395Z" fill="white"/>
</svg>
