<svg width="16" height="17" viewBox="0 0 16 17" fill="none" xmlns="http://www.w3.org/2000/svg">
<path d="M15.7881 14.3289L12.6703 11.2135C12.5999 11.1434 12.5164 11.088 12.4245 11.0505C12.3326 11.013 12.2341 10.9941 12.1349 10.995H11.6253C12.6436 9.69083 13.1259 8.04761 12.9738 6.40034C12.8217 4.75308 12.0467 3.22583 10.8068 2.13001C9.56693 1.03419 7.95556 0.452321 6.30126 0.50306C4.64696 0.553798 3.07431 1.23332 1.904 2.40306C0.733679 3.5728 0.0538249 5.14468 0.00306136 6.79816C-0.0477022 8.45165 0.534448 10.0622 1.63081 11.3015C2.72717 12.5408 4.25517 13.3154 5.90324 13.4674C7.55132 13.6194 9.19535 13.1374 10.5001 12.1196V12.6289C10.4993 12.7281 10.5182 12.8265 10.5557 12.9184C10.5932 13.0103 10.6487 13.0938 10.7187 13.164L13.8357 16.2794C13.9051 16.3493 13.9877 16.4048 14.0786 16.4427C14.1696 16.4805 14.2672 16.5 14.3657 16.5C14.4642 16.5 14.5618 16.4805 14.6528 16.4427C14.7437 16.4048 14.8263 16.3493 14.8957 16.2794L15.7809 15.3947C15.9213 15.2535 16 15.0626 16 14.8635C16 14.6645 15.9213 14.4736 15.7809 14.3324L15.7881 14.3289ZM6.50247 10.995C5.71092 10.995 4.93716 10.7604 4.27901 10.3208C3.62087 9.88127 3.10791 9.25653 2.805 8.5256C2.50209 7.79467 2.42283 6.99037 2.57725 6.21442C2.73168 5.43847 3.11284 4.72571 3.67255 4.16628C4.23225 3.60685 4.94536 3.22588 5.72169 3.07153C6.49803 2.91718 7.30272 2.9964 8.03401 3.29916C8.7653 3.60192 9.39034 4.11463 9.8301 4.77245C10.2699 5.43027 10.5046 6.20366 10.5046 6.99481C10.5049 7.52022 10.4017 8.04054 10.2007 8.52602C9.99965 9.01149 9.70487 9.45261 9.33317 9.82412C8.96147 10.1956 8.52014 10.4903 8.03442 10.6912C7.54871 10.8921 7.02813 10.9953 6.50247 10.995Z" fill="#635D5D"/>
</svg>
