<svg width="18" height="18" viewBox="0 0 18 18" fill="none" xmlns="http://www.w3.org/2000/svg">
<path d="M9 17.5263C13.9706 17.5263 18 13.709 18 9.00001C18 4.29106 13.9706 0.473694 9 0.473694C4.02944 0.473694 0 4.29106 0 9.00001C0 13.709 4.02944 17.5263 9 17.5263Z" fill="#FF3E5B"/>
<path d="M6.59252 12.761C6.377 12.7609 6.17015 12.6806 6.01652 12.5374L3.33352 9.99565C3.25387 9.92486 3.19006 9.83963 3.14587 9.74501C3.10168 9.6504 3.07801 9.54833 3.07628 9.44488C3.07454 9.34143 3.09476 9.23871 3.13575 9.14281C3.17674 9.04691 3.23766 8.95979 3.31488 8.88663C3.3921 8.81347 3.48406 8.75576 3.58529 8.71693C3.68651 8.6781 3.79495 8.65894 3.90414 8.66058C4.01334 8.66223 4.12108 8.68465 4.22095 8.72652C4.32082 8.76838 4.41079 8.82884 4.48552 8.90429L6.57952 10.8881L12.8495 5.02576C12.9248 4.95358 13.0145 4.89627 13.1134 4.85716C13.2123 4.81805 13.3184 4.79791 13.4255 4.79791C13.5327 4.79791 13.6387 4.81805 13.7376 4.85716C13.8365 4.89627 13.9262 4.95358 14.0015 5.02576C14.1525 5.17138 14.2371 5.36733 14.2371 5.57144C14.2371 5.77556 14.1525 5.97151 14.0015 6.11713L7.15552 12.5251C7.0837 12.5988 6.99667 12.6578 6.89984 12.6984C6.803 12.739 6.6984 12.7603 6.59252 12.761Z" fill="white"/>
</svg>
