<svg width="34" height="34" viewBox="0 0 34 34" fill="none" xmlns="http://www.w3.org/2000/svg">
<path fill-rule="evenodd" clip-rule="evenodd" d="M8.4998 5.10002V28.9H25.4998V11.9H20.1873C19.6005 11.9 19.1248 11.4243 19.1248 10.8375V5.10002H8.4998ZM20.8248 6.15856L24.8721 10.2H20.8248V6.15856ZM6.7998 4.46252C6.7998 3.87572 7.2755 3.40002 7.8623 3.40002H20.0285C20.3101 3.40002 20.5801 3.51176 20.7793 3.71069L26.8881 9.8107C27.0877 10.01 27.1998 10.2805 27.1998 10.5625V29.5375C27.1998 30.1243 26.7241 30.6 26.1373 30.6H7.8623C7.2755 30.6 6.7998 30.1243 6.7998 29.5375V4.46252ZM11.0498 15.3C10.5804 15.3 10.1998 15.6806 10.1998 16.15C10.1998 16.6195 10.5804 17 11.0498 17H22.9498C23.4192 17 23.7998 16.6195 23.7998 16.15C23.7998 15.6806 23.4192 15.3 22.9498 15.3H11.0498ZM10.1998 20.4C10.1998 19.9306 10.5804 19.55 11.0498 19.55H22.9498C23.4192 19.55 23.7998 19.9306 23.7998 20.4C23.7998 20.8695 23.4192 21.25 22.9498 21.25H11.0498C10.5804 21.25 10.1998 20.8695 10.1998 20.4ZM11.0498 23.8C10.5804 23.8 10.1998 24.1806 10.1998 24.65C10.1998 25.1195 10.5804 25.5 11.0498 25.5H22.9498C23.4192 25.5 23.7998 25.1195 23.7998 24.65C23.7998 24.1806 23.4192 23.8 22.9498 23.8H11.0498Z" fill="white"/>
</svg>
