<svg width="24" height="24" viewBox="0 0 24 24" fill="none" xmlns="http://www.w3.org/2000/svg">
<path d="M12 23.375C18.2822 23.375 23.375 18.2822 23.375 12C23.375 5.71776 18.2822 0.625 12 0.625C5.71776 0.625 0.625 5.71776 0.625 12C0.625 18.2822 5.71776 23.375 12 23.375Z" stroke="white" stroke-width="1.25"/>
<path d="M16.451 9.785C16.4434 9.39229 16.369 9.00374 16.231 8.636C16.1086 8.32092 15.9217 8.03488 15.6824 7.7962C15.443 7.55753 15.1564 7.37149 14.841 7.25C14.4732 7.11217 14.0847 7.03778 13.692 7.03C13.185 7.006 13.024 7 11.738 7C10.452 7 10.29 7.006 9.78498 7.028C9.39227 7.03562 9.00372 7.11002 8.63598 7.248C8.31887 7.36814 8.03209 7.5566 7.79598 7.8C7.55635 8.0355 7.37044 8.31999 7.25098 8.634C7.11316 9.00179 7.03877 9.39031 7.03098 9.783C7.00698 10.29 7.00098 10.451 7.00098 11.737C7.00098 13.023 7.00598 13.184 7.02798 13.69C7.03654 14.0829 7.11195 14.4714 7.25098 14.839C7.37255 15.1534 7.55832 15.4391 7.79644 15.6777C8.03456 15.9164 8.3198 16.1027 8.63398 16.225C9.00177 16.3628 9.39029 16.4372 9.78298 16.445C10.288 16.467 10.449 16.473 11.735 16.473C13.021 16.473 13.182 16.468 13.687 16.445C14.0797 16.4374 14.4682 16.363 14.836 16.225C15.151 16.1034 15.4371 15.9173 15.6759 15.6786C15.9148 15.4399 16.1011 15.1539 16.223 14.839C16.3608 14.4712 16.4351 14.0827 16.443 13.69C16.465 13.185 16.471 13.024 16.471 11.738C16.471 10.452 16.469 10.29 16.451 9.785ZM15.594 13.653C15.5908 13.9532 15.5357 14.2506 15.431 14.532C15.3521 14.7365 15.2312 14.9222 15.0762 15.0772C14.9212 15.2322 14.7355 15.3531 14.531 15.432C14.2496 15.5366 13.9522 15.5917 13.652 15.595C13.152 15.617 13.003 15.623 11.739 15.623C10.475 15.623 10.323 15.618 9.82598 15.595C9.52705 15.591 9.23105 15.5356 8.95098 15.431C8.74544 15.3557 8.55951 15.235 8.40698 15.078C8.24915 14.9252 8.12751 14.7389 8.05098 14.533C7.94642 14.2516 7.89127 13.9542 7.88798 13.654C7.86598 13.154 7.85998 13.004 7.85998 11.741C7.85998 10.478 7.86498 10.325 7.88798 9.828C7.89115 9.52779 7.9463 9.23039 8.05098 8.949C8.12536 8.7413 8.24648 8.55347 8.40498 8.4C8.55875 8.2445 8.74528 8.12527 8.95098 8.051C9.23177 7.94669 9.52845 7.89155 9.82798 7.888C10.327 7.866 10.477 7.86 11.741 7.86C13.005 7.86 13.157 7.866 13.651 7.888C13.9512 7.89118 14.2486 7.94632 14.53 8.051C14.7355 8.12631 14.9215 8.24696 15.074 8.404C15.2306 8.55684 15.3512 8.74268 15.427 8.948C15.5315 9.22943 15.5867 9.5268 15.59 9.827C15.612 10.327 15.618 10.476 15.618 11.74C15.618 13.004 15.616 13.153 15.594 13.653Z" fill="white"/>
<path d="M11.7377 9.30396C11.2565 9.30396 10.7861 9.44665 10.386 9.71399C9.98588 9.98133 9.67404 10.3613 9.48989 10.8059C9.30574 11.2505 9.25756 11.7397 9.35144 12.2116C9.44532 12.6836 9.67704 13.1171 10.0173 13.4574C10.3576 13.7976 10.7911 14.0293 11.263 14.1232C11.735 14.2171 12.2242 14.1689 12.6688 13.9848C13.1133 13.8006 13.4933 13.4888 13.7606 13.0887C14.028 12.6885 14.1707 12.2182 14.1707 11.737C14.1704 11.0918 13.914 10.4731 13.4578 10.0169C13.0016 9.56063 12.3829 9.30422 11.7377 9.30396V9.30396ZM11.7377 13.3159C11.4256 13.3159 11.1205 13.2234 10.861 13.05C10.6015 12.8766 10.3992 12.6302 10.2798 12.3418C10.1604 12.0535 10.1291 11.7362 10.19 11.4301C10.2509 11.124 10.4012 10.8428 10.6219 10.6221C10.8426 10.4015 11.1237 10.2512 11.4298 10.1903C11.7359 10.1294 12.0532 10.1606 12.3416 10.2801C12.6299 10.3995 12.8763 10.6018 13.0497 10.8613C13.2231 11.1208 13.3157 11.4259 13.3157 11.738C13.3154 12.1564 13.1491 12.5576 12.8532 12.8535C12.5573 13.1493 12.1561 13.3157 11.7377 13.3159Z" fill="white"/>
<path d="M14.835 9.20802C14.835 9.32036 14.8017 9.43018 14.7393 9.52358C14.6769 9.61699 14.5881 9.68979 14.4844 9.73278C14.3806 9.77577 14.2664 9.78702 14.1562 9.76511C14.046 9.74319 13.9448 9.68909 13.8653 9.60966C13.7859 9.53022 13.7318 9.42901 13.7099 9.31882C13.688 9.20864 13.6992 9.09444 13.7422 8.99065C13.7852 8.88687 13.858 8.79815 13.9514 8.73574C14.0448 8.67333 14.1546 8.64001 14.267 8.64001C14.4176 8.64001 14.5621 8.69986 14.6686 8.80638C14.7751 8.9129 14.835 9.05737 14.835 9.20802Z" fill="white"/>
</svg>
