<svg width="102" height="13" viewBox="0 0 102 13" fill="none" xmlns="http://www.w3.org/2000/svg">
<g clip-path="url(#clip0_149_5528)">
<path fill-rule="evenodd" clip-rule="evenodd" d="M21.8442 3.69094H28.7854C30.3602 3.69094 31.6435 4.88054 31.6435 6.33606V12.396H21.2755C20.3131 12.396 19.5256 11.6683 19.5256 10.7866C19.5256 10.0868 19.5256 9.38704 19.5256 8.67328C19.5256 7.84756 20.2547 7.17578 21.1443 7.17578H26.9043L26.2918 8.40737H22.0629C21.8734 8.40737 21.6692 8.54732 21.6692 8.72926C21.6692 9.27508 21.6692 9.8349 21.6692 10.3807C21.6692 10.5767 21.8734 10.7026 22.0629 10.7026H29.4124V6.72793C29.4124 5.95818 28.6979 5.37038 27.8958 5.37038H21.013L21.8442 3.69094ZM78.8608 0.513995V12.396H68.7407C67.7783 12.396 66.9909 11.6683 66.9909 10.7866C66.9909 9.30307 66.9909 7.81957 66.9909 6.33606C66.9909 4.88054 68.2741 3.69094 69.849 3.69094H75.609L74.7632 5.38438H70.7385C69.9365 5.38438 69.2219 5.97218 69.2219 6.74192C69.2219 7.95952 69.2219 9.17711 69.2219 10.3947C69.2219 10.5906 69.4261 10.7166 69.6157 10.7166H76.6006V0.513995H78.8608ZM43.3093 12.396H45.555C45.555 10.3807 45.555 8.35139 45.555 6.33606C45.555 4.88054 44.2717 3.69094 42.6968 3.69094H37.943L37.0827 5.37038H41.8073C42.6093 5.37038 43.3239 5.95818 43.3239 6.72793V12.396H43.3093ZM33.9912 0.513995V12.396H36.2369V0.513995H33.9912ZM15.3114 12.396H17.5424C17.5424 10.3807 17.5424 8.35139 17.5424 6.33606C17.5424 4.88054 16.2592 3.69094 14.6843 3.69094C10.2659 3.69094 4.41842 3.69094 0 3.69094V12.396H2.24567V5.70627C2.24567 5.51033 2.44982 5.38438 2.63939 5.38438C3.95179 5.38438 5.96414 5.38438 7.27654 5.38438C7.46611 5.38438 7.67026 5.52433 7.67026 5.70627V12.41H9.91593V5.70627C9.91593 5.51033 10.1201 5.38438 10.3097 5.38438C11.2429 5.38438 12.8907 5.38438 13.824 5.38438C14.626 5.38438 15.3405 5.97218 15.3405 6.74192V12.396H15.3114ZM90.5558 3.69094H84.927C83.3521 3.69094 82.0689 4.88054 82.0689 6.33606V12.396H84.3146C84.3146 10.5067 84.3146 8.6173 84.3146 6.72793C84.3146 5.95818 85.0291 5.37038 85.8311 5.37038H89.71L90.5558 3.69094ZM61.8725 3.69094C63.4474 3.69094 64.7306 4.88054 64.7306 6.33606V12.396H62.4849C62.4849 10.5067 62.4849 8.6173 62.4849 6.72793C62.4849 5.95818 61.7704 5.37038 60.9684 5.37038H55.6021V12.396H53.3565V3.69094C56.2 3.69094 59.0435 3.69094 61.8725 3.69094ZM48.3402 4.23676L50.5858 3.00517V12.396H48.3402V4.23676ZM50.5858 1.78757V0.5H48.3402V3.01916L50.5858 1.78757ZM92.1161 3.69094H99.0572C100.632 3.69094 101.915 4.88054 101.915 6.33606V12.396H91.5474C90.5849 12.396 89.7975 11.6683 89.7975 10.7866C89.7975 10.0868 89.7975 9.38704 89.7975 8.67328C89.7975 7.84756 90.5266 7.17578 91.4161 7.17578H97.1761L96.5637 8.40737H92.3348C92.1452 8.40737 91.9411 8.54732 91.9411 8.72926C91.9411 9.27508 91.9411 9.8349 91.9411 10.3807C91.9411 10.5767 92.1452 10.7026 92.3348 10.7026H99.6843V6.72793C99.6843 5.95818 98.9697 5.37038 98.1677 5.37038H91.2849L92.1161 3.69094Z" fill="white"/>
</g>
<defs>
<clipPath id="clip0_149_5528">
<rect width="102" height="12" fill="white" transform="translate(0 0.5)"/>
</clipPath>
</defs>
</svg>
