<svg width="102" height="15" viewBox="0 0 102 15" fill="none" xmlns="http://www.w3.org/2000/svg">
<path fill-rule="evenodd" clip-rule="evenodd" d="M77.2528 7.29145H83.0766C84.3911 7.29145 85.4764 8.34191 85.4764 9.6241V14.9845H76.779C75.9688 14.9845 75.3116 14.3512 75.3116 13.5633V11.7096C75.3116 10.9835 75.923 10.381 76.672 10.381H81.5022L80.9978 11.4624H77.4515C77.2987 11.4624 77.1152 11.586 77.1152 11.7405V13.208C77.1152 13.378 77.2834 13.4861 77.4515 13.4861H83.6116V9.99485C83.6116 9.31513 83.0154 8.7899 82.3429 8.7899H76.565L77.2528 7.29145ZM42.4172 5.62307V4.47992H40.5371V6.70443L42.4172 5.62307ZM40.5371 7.78579L42.4172 6.70443V15H40.5371V7.78579ZM51.8942 7.29145C53.2088 7.29145 54.294 8.34191 54.294 9.6241V14.9845H52.4139V9.99485C52.4139 9.31513 51.8178 8.7899 51.1452 8.7899H46.636V14.9845H44.7559V7.29145C47.1251 7.3069 49.5097 7.29145 51.8942 7.29145ZM75.9383 7.29145H71.2151C69.9005 7.29145 68.8152 8.34191 68.8152 9.6241V14.9845H70.6953V9.99485C70.6953 9.31513 71.2915 8.7899 71.964 8.7899H75.2198L75.9383 7.29145ZM12.8398 14.9845H14.7199V9.6241C14.7199 8.34191 13.6346 7.29145 12.3201 7.29145H0V14.9845H1.88011V9.06797C1.88011 8.89804 2.04825 8.7899 2.21639 8.7899H6.09891C6.25176 8.7899 6.43519 8.91349 6.43519 9.06797V14.9845H8.30002V9.06797C8.30002 8.89804 8.46816 8.7899 8.6363 8.7899H11.5864C12.259 8.7899 12.8551 9.31513 12.8551 9.99485L12.8398 14.9845ZM28.5074 4.49537V14.9845H30.3875V4.49537H28.5074ZM36.3183 14.9845H38.1984V9.6241C38.1984 8.34191 37.1131 7.29145 35.7986 7.29145H31.8091L31.106 8.77446H35.0649C35.7375 8.77446 36.3336 9.29969 36.3336 9.9794L36.3183 14.9845ZM66.1403 4.49537V14.9845H57.6568C56.8467 14.9845 56.1894 14.3512 56.1894 13.5633V9.63954C56.1894 8.35736 57.2747 7.3069 58.5892 7.3069H63.4195L62.701 8.7899H59.3229C58.6504 8.7899 58.0543 9.31513 58.0543 9.99485V13.2235C58.0543 13.3934 58.2224 13.5015 58.3752 13.5015H64.2296V4.49537H66.1403ZM18.312 7.29145H24.1358C25.4503 7.29145 26.5356 8.34191 26.5356 9.6241V14.9845H17.8382C17.028 14.9845 16.3708 14.3512 16.3708 13.5633V11.7096C16.3708 10.9835 16.9822 10.381 17.7312 10.381H22.5614L22.0417 11.4624H18.4954C18.3426 11.4624 18.1744 11.586 18.1744 11.7405V13.208C18.1744 13.378 18.3426 13.4861 18.4954 13.4861H24.6555V9.99485C24.6555 9.31513 24.0593 8.7899 23.3868 8.7899H17.6089L18.312 7.29145Z" fill="white"/>
<path fill-rule="evenodd" clip-rule="evenodd" d="M98.2398 3.56848V3.52214C98.2856 3.25952 98.3315 3.0278 98.4079 2.79608C98.4843 2.57981 98.576 2.37899 98.7136 2.20906C98.8512 2.03913 99.0193 1.9001 99.2333 1.80741C99.4473 1.71473 99.7072 1.66838 100.028 1.66838H100.838L100.976 1.68383C101.113 1.71473 101.251 1.74562 101.373 1.80741C101.496 1.8692 101.603 1.931 101.694 2.02368C101.786 2.11637 101.878 2.22451 101.924 2.34809C101.969 2.47168 102 2.59526 102 2.74974V2.84243L101.985 2.93511C101.954 3.16683 101.893 3.35221 101.832 3.50669C101.755 3.66117 101.679 3.76931 101.557 3.86199C101.45 3.95468 101.312 4.00102 101.159 4.03192C101.006 4.06282 100.838 4.07827 100.64 4.07827H99.111C99.0805 4.23274 99.0805 4.38722 99.0805 4.51081C99.0805 4.63439 99.111 4.74253 99.1569 4.81977C99.2028 4.89701 99.2945 4.9588 99.4168 5.00514C99.5543 5.05149 99.7377 5.06694 99.9823 5.06694H101.633L101.205 5.79299H99.4932C98.9429 5.79299 98.6066 5.65396 98.4079 5.40679C98.2092 5.15962 98.1328 4.85066 98.1328 4.49536C98.1328 4.35633 98.1481 4.20185 98.1633 4.03192C98.1939 3.87744 98.2092 3.72296 98.2398 3.56848ZM91.667 2.08548L92.7523 1.46756L92.1103 5.76209H91.0709L91.1626 5.15962C91.3155 4.1555 91.4683 3.15139 91.6059 2.14727V2.11637L91.667 2.08548ZM91.9727 0.432543H92.9051L92.8287 0.98867L91.6823 1.63748L91.8657 0.432543H91.9727ZM97.2462 1.91555L96.9252 2.44078H95.2438L95.091 2.45623C95.0451 2.47168 94.9993 2.47168 94.9534 2.48712C94.9228 2.50257 94.877 2.51802 94.8617 2.53347C94.8464 2.54892 94.8158 2.57981 94.8005 2.61071C94.7853 2.6416 94.77 2.68795 94.7547 2.71884C94.7394 2.74974 94.7394 2.79608 94.7394 2.84243C94.7394 2.87332 94.7394 2.90422 94.7547 2.93511C94.77 2.96601 94.7853 2.99691 94.8158 3.0278C94.8464 3.0587 94.877 3.07415 94.9228 3.10504C94.9687 3.13594 95.0298 3.15139 95.0757 3.16683L96.4819 3.50669C96.6501 3.55303 96.8029 3.61483 96.9252 3.67662C97.0475 3.75386 97.1545 3.84655 97.2309 3.97013C97.3074 4.07826 97.3685 4.2173 97.3838 4.35633C97.4144 4.49536 97.4144 4.64984 97.3838 4.80432C97.3532 4.98969 97.2921 5.15962 97.2004 5.28321C97.1239 5.40679 97.0169 5.51493 96.8947 5.59217C96.7724 5.66941 96.6348 5.71575 96.4819 5.74665C96.3291 5.77754 96.1762 5.79299 96.0081 5.79299H93.2567L93.6847 5.08238H95.4578C95.5801 5.08238 95.6871 5.08238 95.7941 5.06694C95.9011 5.05149 95.9928 5.03604 96.0692 5.00514C96.1457 4.97425 96.2068 4.9279 96.2527 4.86611C96.2985 4.80432 96.3444 4.71163 96.3597 4.6035C96.3749 4.52626 96.3597 4.46446 96.3444 4.41812C96.3138 4.37178 96.2832 4.32543 96.2221 4.27909C96.1609 4.23274 96.0845 4.20185 96.0234 4.17095C95.947 4.14006 95.8705 4.12461 95.7941 4.10916L94.556 3.81565C94.4031 3.78475 94.2656 3.72296 94.1433 3.66117C94.021 3.58393 93.9293 3.50669 93.8528 3.39855C93.7764 3.29042 93.7306 3.18228 93.7 3.04325C93.6694 2.91967 93.6847 2.78064 93.7 2.62616C93.7306 2.45623 93.7917 2.30175 93.8528 2.17816C93.9293 2.05458 94.021 1.96189 94.1433 1.9001C94.2503 1.83831 94.3725 1.79197 94.5101 1.76107C94.6477 1.73017 94.8005 1.71472 94.9534 1.71472H97.3379L97.2462 1.91555ZM88.7933 5.7003L87.6164 3.36766H86.4852L86.1337 5.76209H85.0943L85.2471 4.80432C85.4917 3.21318 85.7362 1.62204 85.9502 0.0463438V0H88.9615L89.1143 0.0154477C89.2978 0.0463437 89.4659 0.0926876 89.6035 0.169927C89.7563 0.247167 89.8786 0.355303 89.9856 0.478887C90.0926 0.602471 90.1538 0.741503 90.2149 0.895982C90.2608 1.05046 90.2913 1.22039 90.2913 1.40577V1.56025L90.276 1.73017C90.2302 2.02368 90.1537 2.2554 90.0468 2.44078C89.9398 2.62616 89.7869 2.78064 89.6341 2.88877C89.4812 2.99691 89.3283 3.0587 89.1449 3.12049C88.9921 3.16683 88.8392 3.19773 88.6711 3.22863L90.0162 5.76209H88.8392L88.7933 5.7003ZM88.4112 0.756951H86.8674L86.5922 2.6416H87.7998C87.9832 2.6416 88.1666 2.62616 88.3348 2.59526C88.5029 2.56436 88.6558 2.51802 88.7933 2.44078C88.9156 2.36354 89.0379 2.27085 89.1143 2.14727C89.2061 2.02368 89.2672 1.8692 89.2978 1.66838C89.3283 1.49845 89.3283 1.34397 89.2978 1.22039C89.2672 1.11225 89.2213 1.01957 89.1602 0.942326C89.0838 0.865086 88.9921 0.818742 88.8851 0.787846C88.7475 0.772398 88.5946 0.756951 88.4112 0.756951ZM100.395 2.37899H100.028C99.7072 2.37899 99.5238 2.50257 99.4168 2.68795C99.3098 2.87332 99.2639 3.12049 99.218 3.414H100.456C100.533 3.414 100.594 3.39855 100.655 3.38311C100.701 3.36766 100.762 3.33676 100.792 3.30587C100.838 3.27497 100.884 3.21318 100.915 3.15139C100.945 3.08959 100.976 2.99691 100.991 2.90422C101.006 2.78063 101.006 2.68795 100.991 2.62616C100.976 2.56436 100.945 2.51802 100.899 2.48712C100.854 2.45623 100.777 2.42533 100.701 2.40988C100.609 2.39444 100.502 2.37899 100.395 2.37899Z" fill="white"/>
</svg>
