<svg width="102" height="12" viewBox="0 0 102 12" fill="none" xmlns="http://www.w3.org/2000/svg">
<g clip-path="url(#clip0_217_2274)">
<path fill-rule="evenodd" clip-rule="evenodd" d="M21.8442 3.19093H28.7854C30.3602 3.19093 31.6435 4.38054 31.6435 5.83605V11.896H21.2755C20.3131 11.896 19.5256 11.1683 19.5256 10.2866C19.5256 9.5868 19.5256 8.88704 19.5256 8.17327C19.5256 7.34755 20.2547 6.67577 21.1443 6.67577H26.9043L26.2918 7.90736H22.0629C21.8734 7.90736 21.6692 8.04732 21.6692 8.22926C21.6692 8.77507 21.6692 9.33489 21.6692 9.88071C21.6692 10.0766 21.8734 10.2026 22.0629 10.2026H29.4124V6.22792C29.4124 5.45818 28.6979 4.87037 27.8958 4.87037H21.013L21.8442 3.19093ZM78.8608 0.0139875V11.896H68.7407C67.7783 11.896 66.9909 11.1683 66.9909 10.2866C66.9909 8.80307 66.9909 7.31956 66.9909 5.83605C66.9909 4.38054 68.2741 3.19093 69.849 3.19093H75.609L74.7632 4.88437H70.7385C69.9365 4.88437 69.2219 5.47217 69.2219 6.24192C69.2219 7.45951 69.2219 8.67711 69.2219 9.8947C69.2219 10.0906 69.4261 10.2166 69.6157 10.2166H76.6006V0.0139875H78.8608ZM43.3093 11.896H45.555C45.555 9.88071 45.555 7.85138 45.555 5.83605C45.555 4.38054 44.2717 3.19093 42.6968 3.19093H37.943L37.0827 4.87037H41.8073C42.6093 4.87037 43.3239 5.45818 43.3239 6.22792V11.896H43.3093ZM33.9912 0.0139875V11.896H36.2369V0.0139875H33.9912ZM15.3114 11.896H17.5424C17.5424 9.88071 17.5424 7.85138 17.5424 5.83605C17.5424 4.38054 16.2592 3.19093 14.6843 3.19093C10.2659 3.19093 4.41842 3.19093 0 3.19093V11.896H2.24567V5.20626C2.24567 5.01033 2.44982 4.88437 2.63939 4.88437C3.95179 4.88437 5.96414 4.88437 7.27654 4.88437C7.46611 4.88437 7.67026 5.02432 7.67026 5.20626V11.91H9.91593V5.20626C9.91593 5.01033 10.1201 4.88437 10.3097 4.88437C11.2429 4.88437 12.8907 4.88437 13.824 4.88437C14.626 4.88437 15.3405 5.47217 15.3405 6.24192V11.896H15.3114ZM90.5558 3.19093H84.927C83.3521 3.19093 82.0689 4.38054 82.0689 5.83605V11.896H84.3146C84.3146 10.0067 84.3146 8.11729 84.3146 6.22792C84.3146 5.45818 85.0291 4.87037 85.8311 4.87037H89.71L90.5558 3.19093ZM61.8725 3.19093C63.4474 3.19093 64.7306 4.38054 64.7306 5.83605V11.896H62.4849C62.4849 10.0067 62.4849 8.11729 62.4849 6.22792C62.4849 5.45818 61.7704 4.87037 60.9684 4.87037H55.6021V11.896H53.3565V3.19093C56.2 3.19093 59.0435 3.19093 61.8725 3.19093ZM48.3402 3.73675L50.5858 2.50516V11.896H48.3402V3.73675ZM50.5858 1.28756V-7.62939e-06H48.3402V2.51915L50.5858 1.28756ZM92.1161 3.19093H99.0572C100.632 3.19093 101.915 4.38054 101.915 5.83605V11.896H91.5474C90.5849 11.896 89.7975 11.1683 89.7975 10.2866C89.7975 9.5868 89.7975 8.88704 89.7975 8.17327C89.7975 7.34755 90.5266 6.67577 91.4161 6.67577H97.1761L96.5637 7.90736H92.3348C92.1452 7.90736 91.9411 8.04732 91.9411 8.22926C91.9411 8.77507 91.9411 9.33489 91.9411 9.88071C91.9411 10.0766 92.1452 10.2026 92.3348 10.2026H99.6843V6.22792C99.6843 5.45818 98.9697 4.87037 98.1677 4.87037H91.2849L92.1161 3.19093Z" fill="white"/>
</g>
<defs>
<clipPath id="clip0_217_2274">
<rect width="102" height="12" fill="white"/>
</clipPath>
</defs>
</svg>
