<svg width="18" height="19" viewBox="0 0 18 19" fill="none" xmlns="http://www.w3.org/2000/svg">
<path d="M9 18.5C13.9706 18.5 18 14.4706 18 9.5C18 4.52944 13.9706 0.5 9 0.5C4.02944 0.5 0 4.52944 0 9.5C0 14.4706 4.02944 18.5 9 18.5Z" fill="#FF3E5B"/>
<path d="M6.59252 13.47C6.377 13.4699 6.17015 13.3851 6.01652 13.234L3.33352 10.551C3.25387 10.4763 3.19006 10.3863 3.14587 10.2864C3.10168 10.1865 3.07801 10.0788 3.07628 9.96962C3.07454 9.86042 3.09476 9.75199 3.13575 9.65076C3.17674 9.54953 3.23766 9.45758 3.31488 9.38035C3.3921 9.30313 3.48406 9.24221 3.58529 9.20123C3.68651 9.16024 3.79495 9.14001 3.90414 9.14175C4.01334 9.14349 4.12108 9.16715 4.22095 9.21134C4.32082 9.25554 4.41079 9.31935 4.48552 9.39899L6.57952 11.493L12.8495 5.30499C12.9248 5.2288 13.0145 5.16831 13.1134 5.12702C13.2123 5.08574 13.3184 5.06448 13.4255 5.06448C13.5327 5.06448 13.6387 5.08574 13.7376 5.12702C13.8365 5.16831 13.9262 5.2288 14.0015 5.30499C14.1525 5.4587 14.2371 5.66554 14.2371 5.88099C14.2371 6.09644 14.1525 6.30328 14.0015 6.45699L7.15552 13.221C7.0837 13.2988 6.99667 13.361 6.89984 13.4039C6.803 13.4467 6.6984 13.4692 6.59252 13.47Z" fill="white"/>
</svg>
