<svg width="18" height="19" viewBox="0 0 18 19" fill="none" xmlns="http://www.w3.org/2000/svg">
<path d="M9 18.5C13.9706 18.5 18 14.4706 18 9.5C18 4.52944 13.9706 0.5 9 0.5C4.02944 0.5 0 4.52944 0 9.5C0 14.4706 4.02944 18.5 9 18.5Z" fill="#FF3E5B"/>
<path d="M6.59252 13.47C6.377 13.4699 6.17015 13.3852 6.01652 13.234L3.33352 10.551C3.25387 10.4763 3.19006 10.3863 3.14587 10.2865C3.10168 10.1866 3.07801 10.0788 3.07628 9.96965C3.07454 9.86045 3.09476 9.75202 3.13575 9.65079C3.17674 9.54956 3.23766 9.45761 3.31488 9.38038C3.3921 9.30316 3.48406 9.24224 3.58529 9.20126C3.68651 9.16027 3.79495 9.14004 3.90414 9.14178C4.01334 9.14352 4.12108 9.16718 4.22095 9.21138C4.32082 9.25557 4.41079 9.31938 4.48552 9.39902L6.57952 11.493L12.8495 5.30502C12.9248 5.22883 13.0145 5.16834 13.1134 5.12706C13.2123 5.08577 13.3184 5.06451 13.4255 5.06451C13.5327 5.06451 13.6387 5.08577 13.7376 5.12706C13.8365 5.16834 13.9262 5.22883 14.0015 5.30502C14.1525 5.45873 14.2371 5.66557 14.2371 5.88102C14.2371 6.09647 14.1525 6.30331 14.0015 6.45702L7.15552 13.221C7.0837 13.2988 6.99667 13.3611 6.89984 13.4039C6.803 13.4467 6.6984 13.4692 6.59252 13.47Z" fill="white"/>
</svg>
