<svg width="102" height="12" viewBox="0 0 102 12" fill="none" xmlns="http://www.w3.org/2000/svg">
<path fill-rule="evenodd" clip-rule="evenodd" d="M21.8443 3.23592H28.7855C30.3604 3.23592 31.6436 4.42553 31.6436 5.88104V11.941H21.2756C20.3132 11.941 19.5258 11.2133 19.5258 10.3316C19.5258 9.6318 19.5258 8.93203 19.5258 8.21826C19.5258 7.39254 20.2549 6.72076 21.1444 6.72076H26.9044L26.2919 7.95235H22.0631C21.8735 7.95235 21.6693 8.09231 21.6693 8.27425C21.6693 8.82007 21.6693 9.37988 21.6693 9.9257C21.6693 10.1216 21.8735 10.2476 22.0631 10.2476H29.4125V6.27291C29.4125 5.50317 28.698 4.91536 27.896 4.91536H21.0131L21.8443 3.23592ZM78.8609 0.058978V11.941H68.7408C67.7784 11.941 66.991 11.2133 66.991 10.3316C66.991 8.84806 66.991 7.36455 66.991 5.88104C66.991 4.42553 68.2742 3.23592 69.8491 3.23592H75.6091L74.7633 4.92936H70.7386C69.9366 4.92936 69.2221 5.51716 69.2221 6.28691C69.2221 7.5045 69.2221 8.7221 69.2221 9.93969C69.2221 10.1356 69.4262 10.2616 69.6158 10.2616H76.6007V0.058978H78.8609ZM43.3094 11.941H45.5551C45.5551 9.9257 45.5551 7.89637 45.5551 5.88104C45.5551 4.42553 44.2718 3.23592 42.697 3.23592H37.9431L37.0828 4.91536H41.8074C42.6095 4.91536 43.324 5.50317 43.324 6.27291V11.941H43.3094ZM33.9913 0.058978V11.941H36.237V0.058978H33.9913ZM15.3115 11.941H17.5426C17.5426 9.9257 17.5426 7.89637 17.5426 5.88104C17.5426 4.42553 16.2593 3.23592 14.6844 3.23592C10.266 3.23592 4.41854 3.23592 0.00012207 3.23592V11.941H2.24579V5.25125C2.24579 5.05532 2.44994 4.92936 2.63951 4.92936C3.95191 4.92936 5.96426 4.92936 7.27666 4.92936C7.46623 4.92936 7.67039 5.06931 7.67039 5.25125V11.955H9.91605V5.25125C9.91605 5.05532 10.1202 4.92936 10.3098 4.92936C11.243 4.92936 12.8908 4.92936 13.8241 4.92936C14.6261 4.92936 15.3406 5.51716 15.3406 6.28691V11.941H15.3115ZM90.5559 3.23592H84.9271C83.3523 3.23592 82.069 4.42553 82.069 5.88104V11.941H84.3147C84.3147 10.0517 84.3147 8.16228 84.3147 6.27291C84.3147 5.50317 85.0292 4.91536 85.8312 4.91536H89.7101L90.5559 3.23592ZM61.8726 3.23592C63.4475 3.23592 64.7307 4.42553 64.7307 5.88104V11.941H62.4851C62.4851 10.0517 62.4851 8.16228 62.4851 6.27291C62.4851 5.50317 61.7705 4.91536 60.9685 4.91536H55.6022V11.941H53.3566V3.23592C56.2001 3.23592 59.0437 3.23592 61.8726 3.23592ZM48.3403 3.78174L50.5859 2.55015V11.941H48.3403V3.78174ZM50.5859 1.33255V0.0449829H48.3403V2.56414L50.5859 1.33255ZM92.1162 3.23592H99.0574C100.632 3.23592 101.915 4.42553 101.915 5.88104V11.941H91.5475C90.5851 11.941 89.7976 11.2133 89.7976 10.3316C89.7976 9.6318 89.7976 8.93203 89.7976 8.21826C89.7976 7.39254 90.5267 6.72076 91.4162 6.72076H97.1762L96.5638 7.95235H92.3349C92.1454 7.95235 91.9412 8.09231 91.9412 8.27425C91.9412 8.82007 91.9412 9.37988 91.9412 9.9257C91.9412 10.1216 92.1454 10.2476 92.3349 10.2476H99.6844V6.27291C99.6844 5.50317 98.9699 4.91536 98.1678 4.91536H91.285L92.1162 3.23592Z" fill="white"/>
</svg>
