<svg width="103" height="12" viewBox="0 0 103 12" fill="none" xmlns="http://www.w3.org/2000/svg">
<path fill-rule="evenodd" clip-rule="evenodd" d="M22.3442 3.23592H29.2854C30.8602 3.23592 32.1435 4.42553 32.1435 5.88104V11.941H21.7755C20.8131 11.941 20.0256 11.2133 20.0256 10.3316C20.0256 9.63179 20.0256 8.93203 20.0256 8.21826C20.0256 7.39254 20.7547 6.72076 21.6443 6.72076H27.4043L26.7918 7.95235H22.5629C22.3734 7.95235 22.1692 8.09231 22.1692 8.27425C22.1692 8.82007 22.1692 9.37988 22.1692 9.9257C22.1692 10.1216 22.3734 10.2476 22.5629 10.2476H29.9124V6.27291C29.9124 5.50317 29.1979 4.91536 28.3958 4.91536H21.513L22.3442 3.23592ZM79.3608 0.058978V11.941H69.2407C68.2783 11.941 67.4909 11.2133 67.4909 10.3316C67.4909 8.84806 67.4909 7.36455 67.4909 5.88104C67.4909 4.42553 68.7741 3.23592 70.349 3.23592H76.109L75.2632 4.92936H71.2385C70.4365 4.92936 69.7219 5.51716 69.7219 6.28691C69.7219 7.5045 69.7219 8.7221 69.7219 9.93969C69.7219 10.1356 69.9261 10.2616 70.1157 10.2616H77.1006V0.058978H79.3608ZM43.8093 11.941H46.055C46.055 9.9257 46.055 7.89637 46.055 5.88104C46.055 4.42553 44.7717 3.23592 43.1968 3.23592H38.443L37.5827 4.91536H42.3073C43.1093 4.91536 43.8239 5.50317 43.8239 6.27291V11.941H43.8093ZM34.4912 0.058978V11.941H36.7369V0.058978H34.4912ZM15.8114 11.941H18.0424C18.0424 9.9257 18.0424 7.89637 18.0424 5.88104C18.0424 4.42553 16.7592 3.23592 15.1843 3.23592C10.7659 3.23592 4.91842 3.23592 0.5 3.23592V11.941H2.74567V5.25125C2.74567 5.05532 2.94982 4.92936 3.13939 4.92936C4.45179 4.92936 6.46414 4.92936 7.77654 4.92936C7.96611 4.92936 8.17026 5.06931 8.17026 5.25125V11.955H10.4159V5.25125C10.4159 5.05532 10.6201 4.92936 10.8097 4.92936C11.7429 4.92936 13.3907 4.92936 14.324 4.92936C15.126 4.92936 15.8405 5.51716 15.8405 6.28691V11.941H15.8114ZM91.0558 3.23592H85.427C83.8521 3.23592 82.5689 4.42553 82.5689 5.88104V11.941H84.8146C84.8146 10.0517 84.8146 8.16228 84.8146 6.27291C84.8146 5.50317 85.5291 4.91536 86.3311 4.91536H90.21L91.0558 3.23592ZM62.3725 3.23592C63.9474 3.23592 65.2306 4.42553 65.2306 5.88104V11.941H62.9849C62.9849 10.0517 62.9849 8.16228 62.9849 6.27291C62.9849 5.50317 62.2704 4.91536 61.4684 4.91536H56.1021V11.941H53.8565V3.23592C56.7 3.23592 59.5435 3.23592 62.3725 3.23592ZM48.8402 3.78174L51.0858 2.55015V11.941H48.8402V3.78174ZM51.0858 1.33255V0.0449829H48.8402V2.56414L51.0858 1.33255ZM92.6161 3.23592H99.5572C101.132 3.23592 102.415 4.42553 102.415 5.88104V11.941H92.0474C91.0849 11.941 90.2975 11.2133 90.2975 10.3316C90.2975 9.63179 90.2975 8.93203 90.2975 8.21826C90.2975 7.39254 91.0266 6.72076 91.9161 6.72076H97.6761L97.0637 7.95235H92.8348C92.6452 7.95235 92.4411 8.09231 92.4411 8.27425C92.4411 8.82007 92.4411 9.37988 92.4411 9.9257C92.4411 10.1216 92.6452 10.2476 92.8348 10.2476H100.184V6.27291C100.184 5.50317 99.4697 4.91536 98.6677 4.91536H91.7849L92.6161 3.23592Z" fill="white"/>
</svg>
