<svg width="18" height="19" viewBox="0 0 18 19" fill="none" xmlns="http://www.w3.org/2000/svg">
<path d="M8.065 16.781C7.99295 16.7825 7.92168 16.7659 7.85778 16.7326C7.79389 16.6994 7.73942 16.6506 7.69942 16.5909L4.31446 11.9784C3.29071 10.8245 2.6803 9.36435 2.5791 7.82712C2.5797 6.37275 3.15941 4.97813 4.19084 3.94974C5.22227 2.92135 6.62101 2.34334 8.07967 2.34274H8.1011C9.55502 2.35194 10.9464 2.93342 11.9724 3.96059C12.9984 4.98776 13.5759 6.37746 13.5791 7.82712C13.4826 9.36669 12.8725 10.8299 11.846 11.984C11.6485 12.254 8.43734 16.5965 8.43734 16.5965C8.3925 16.6524 8.33594 16.6979 8.27163 16.7298C8.20731 16.7617 8.13679 16.7791 8.065 16.781ZM8.05033 3.25399C6.83633 3.25757 5.6733 3.74099 4.81625 4.59826C3.95919 5.45554 3.47807 6.61669 3.47837 7.82712C3.58967 9.16999 4.13757 10.4399 5.03884 11.444L8.05936 15.5491C8.90785 14.4039 10.9332 11.6555 11.0945 11.444C11.995 10.4396 12.5421 9.16972 12.6527 7.82712C12.6519 6.61686 12.1702 5.45622 11.3132 4.59917C10.4561 3.74213 9.29349 3.25846 8.07967 3.25399H8.05033Z" fill="white"/>
<path d="M8.02783 10.1964C7.46993 10.1964 6.92456 10.0314 6.46068 9.72239C5.9968 9.41335 5.63525 8.9741 5.42175 8.46018C5.20825 7.94626 5.15239 7.38076 5.26123 6.83519C5.37007 6.28962 5.63873 5.78848 6.03323 5.39514C6.42772 5.00181 6.93034 4.73394 7.47752 4.62542C8.0247 4.5169 8.59187 4.5726 9.10731 4.78547C9.62274 4.99834 10.0633 5.35883 10.3732 5.82134C10.6832 6.28385 10.8486 6.82762 10.8486 7.38388C10.8486 8.1298 10.5514 8.84517 10.0224 9.37262C9.49344 9.90007 8.77596 10.1964 8.02783 10.1964ZM8.02783 5.47813C7.65006 5.47724 7.2805 5.58812 6.96596 5.79674C6.65141 6.00536 6.40601 6.30233 6.26082 6.65007C6.11564 6.99781 6.07718 7.38068 6.15034 7.75022C6.22349 8.11976 6.40496 8.45935 6.67177 8.72601C6.93859 8.99267 7.27875 9.17441 7.64921 9.24822C8.01966 9.32203 8.40375 9.2846 8.75286 9.14066C9.10197 8.99673 9.4004 8.75275 9.61038 8.43963C9.82036 8.1265 9.93244 7.7583 9.93244 7.38163C9.93214 6.87766 9.73153 6.39435 9.37454 6.03757C9.01755 5.68079 8.53329 5.47962 8.02783 5.47813Z" fill="white"/>
</svg>
