<svg width="18" height="19" viewBox="0 0 18 19" fill="none" xmlns="http://www.w3.org/2000/svg">
<path d="M8.065 16.781C7.99295 16.7825 7.92168 16.7659 7.85778 16.7327C7.79389 16.6994 7.73942 16.6507 7.69942 16.5909L4.31446 11.9784C3.29071 10.8246 2.6803 9.36438 2.5791 7.82715C2.5797 6.37278 3.15941 4.97816 4.19084 3.94977C5.22227 2.92138 6.62101 2.34337 8.07967 2.34277H8.1011C9.55502 2.35197 10.9464 2.93345 11.9724 3.96062C12.9984 4.98779 13.5759 6.37749 13.5791 7.82715C13.4826 9.36672 12.8725 10.8299 11.846 11.984C11.6485 12.254 8.43734 16.5965 8.43734 16.5965C8.3925 16.6525 8.33594 16.698 8.27163 16.7298C8.20731 16.7617 8.13679 16.7792 8.065 16.781ZM8.05033 3.25402C6.83633 3.2576 5.6733 3.74102 4.81625 4.59829C3.95919 5.45557 3.47807 6.61672 3.47837 7.82715C3.58967 9.17002 4.13757 10.44 5.03884 11.444L8.05936 15.5491C8.90785 14.4039 10.9332 11.6555 11.0945 11.444C11.995 10.4397 12.5421 9.16975 12.6527 7.82715C12.6519 6.61689 12.1702 5.45625 11.3132 4.59921C10.4561 3.74216 9.29349 3.25849 8.07967 3.25402H8.05033Z" fill="#FF3E5B"/>
<path d="M8.02783 10.1964C7.46993 10.1964 6.92456 10.0315 6.46068 9.72242C5.9968 9.41338 5.63525 8.97413 5.42175 8.46021C5.20825 7.94629 5.15239 7.38079 5.26123 6.83522C5.37007 6.28965 5.63873 5.78851 6.03323 5.39517C6.42772 5.00184 6.93034 4.73397 7.47752 4.62545C8.0247 4.51693 8.59187 4.57263 9.10731 4.7855C9.62274 4.99837 10.0633 5.35886 10.3732 5.82137C10.6832 6.28388 10.8486 6.82765 10.8486 7.38391C10.8486 8.12983 10.5514 8.8452 10.0224 9.37265C9.49344 9.9001 8.77596 10.1964 8.02783 10.1964ZM8.02783 5.47816C7.65006 5.47727 7.2805 5.58815 6.96596 5.79677C6.65141 6.00539 6.40601 6.30236 6.26082 6.6501C6.11564 6.99784 6.07718 7.38071 6.15034 7.75025C6.22349 8.11979 6.40496 8.45938 6.67177 8.72604C6.93859 8.9927 7.27875 9.17444 7.64921 9.24825C8.01966 9.32206 8.40375 9.28463 8.75286 9.14069C9.10197 8.99676 9.4004 8.75278 9.61038 8.43966C9.82036 8.12653 9.93244 7.75833 9.93244 7.38166C9.93214 6.87769 9.73153 6.39438 9.37454 6.0376C9.01755 5.68082 8.53329 5.47965 8.02783 5.47816Z" fill="#FF3E5B"/>
</svg>
